<svg xmlns="http://www.w3.org/2000/svg" viewBox="0 0 630 630">
  <g transform="scale(1.25) rotate(-18) translate(0,65)">
    <path d="M127.844 360.088L23.662 331.166.445 70.766h255.11l-23.241 260.36-104.47 28.962z" fill="#264DE4"/>
    <path d="M212.417 314.547l19.86-222.49H128V337.95l84.417-23.403z" fill="#2965F1"/>
    <path d="M53.669 188.636l2.862 31.937H128v-31.937H53.669zM47.917 123.995l2.903 31.937H128v-31.937H47.917zM128 271.58l-.14.037-35.568-9.604-2.274-25.471h-32.06l4.474 50.146 65.421 18.16.147-.04V271.58z" fill="#EBEBEB"/>
    <path d="M60.484 0h38.68v16.176H76.66v16.176h22.506v16.175H60.484V0zM106.901 0h38.681v14.066h-22.505v2.813h22.505v32.352h-38.68V34.46h22.505v-2.813H106.9V0zM153.319 0H192v14.066h-22.505v2.813H192v32.352h-38.681V34.46h22.505v-2.813H153.32V0z" fill="#FFF"/>
    <path d="M202.127 188.636l5.765-64.641H127.89v31.937h45.002l-2.906 32.704H127.89v31.937h39.327l-3.708 41.42-35.62 9.614v33.226l65.473-18.145.48-5.396 7.506-84.08.779-8.576z" fill="#FFF"/>
  </g>
  <polygon points="0 550, 0 630, 630 630, 630 0, 550 0" fill="#f7df1e"/>
  <path d="m423.2 492.19c12.69 20.72 29.2 35.95 58.4 35.95 24.53 0 40.2-12.26 40.2-29.2 0-20.3-16.1-27.49-43.1-39.3l-14.8-6.35c-42.72-18.2-71.1-41-71.1-89.2 0-44.4 33.83-78.2 86.7-78.2 37.64 0 64.7 13.1 84.2 47.4l-46.1 29.6c-10.15-18.2-21.1-25.37-38.1-25.37-17.34 0-28.33 11-28.33 25.37 0 17.76 11 24.95 36.4 35.95l14.8 6.34c50.3 21.57 78.7 43.56 78.7 93 0 53.3-41.87 82.5-98.1 82.5-54.98 0-90.5-26.2-107.88-60.54zm-209.13 5.13c9.3 16.5 17.76 30.45 38.1 30.45 19.45 0 31.72-7.61 31.72-37.2v-201.3h59.2v202.1c0 61.3-35.94 89.2-88.4 89.2-47.4 0-74.85-24.53-88.81-54.075z"/>
</svg>
