<?xml version="1.0" encoding="utf-8"?>
<!-- Generator: Adobe Illustrator 16.0.4, SVG Export Plug-In . SVG Version: 6.00 Build 0)  -->
<!DOCTYPE svg PUBLIC "-//W3C//DTD SVG 1.1//EN" "http://www.w3.org/Graphics/SVG/1.1/DTD/svg11.dtd">
<svg xmlns="http://www.w3.org/2000/svg" width="360" height="360" viewBox="0 0 360 360" style="width:100%;max-width:360px;height:auto"><path d="M209.541 262.773l-29.167-55.742a65.382 65.382 0 0 1-6.767.234c-5.833 0-9.1-.234-14.7-.466v55.974H119.24V93.448a435.249 435.249 0 0 1 50.4-2.8c53.2 0 74.2 25.422 74.2 56.675 0 20.291-10.966 38.484-29.4 49.446l40.132 66h-45.031zM174.308 126.1a82.5 82.5 0 0 0-15.4 1.165v47.113a120.509 120.509 0 0 0 12.6.7c18.9 0 31.033-9.1 31.033-26.355 0-14.223-11.2-22.623-28.233-22.623zM322.147 331.468h-2.185v-1.522h6.254v1.522h-2.222v6.494h-1.847v-6.494zm11.883 3.426a87.232 87.232 0 0 1-.073-3.3h-.036a45.469 45.469 0 0 1-.9 3.1l-.991 3.129h-1.436l-.869-3.105a35.934 35.934 0 0 1-.736-3.128h-.025c-.048 1.082-.083 2.32-.144 3.318l-.146 3.045h-1.7l.519-8.016h2.45l.8 2.676c.254.928.508 1.927.688 2.867h.038c.229-.928.507-1.987.772-2.879l.869-2.664h2.4l.446 8.016h-1.8z" fill="#fff" fill-rule="evenodd"></path><path d="M0 0v360h360V0H0zm348.175 348.175H11.825V11.825h336.35v336.35z" fill="#fff" fill-rule="evenodd"></path></svg>
