<?xml version="1.0" encoding="utf-8"?>
<!DOCTYPE svg PUBLIC "-//W3C//DTD SVG 1.1//EN" "http://www.w3.org/Graphics/SVG/1.1/DTD/svg11.dtd">
<svg width="264px" height="174px" viewBox="0 0 264 174" version="1.1" xmlns="http://www.w3.org/2000/svg" xmlns:xlink="http://www.w3.org/1999/xlink">
    <!-- Generator: Sketch 40.3 (33839) - http://www.bohemiancoding.com/sketch -->
    <title>chain-react-logo</title>
    <desc>Created with Sketch.</desc>
    <defs></defs>
    <g id="Page-1" stroke="none" stroke-width="1" fill="none" fill-rule="evenodd">
        <g id="chain-react-logo">
            <g id="connectors" opacity="0.2" transform="translate(45.000000, 50.000000)" fill="#F94647">
                <path d="M109.572067,8.92091444 C109.572067,8.92091444 127.944444,31.7654533 109.572067,70.4505749 L158.17273,70.4505749 C158.17273,70.4505749 138.021764,34.9482162 158.17273,8.92091444 L109.572067,8.92091444 L109.572067,8.92091444 L109.572067,8.92091444 Z" id="Path-4" transform="translate(133.872398, 39.685745) rotate(-45.000000) translate(-133.872398, -39.685745) "></path>
                <path d="M15.6107848,8.92091494 C15.6107848,8.92091494 33.9831619,31.7654538 15.6107848,70.4505754 L64.2114481,70.4505754 C64.2114481,70.4505754 44.0604816,34.9482167 64.2114481,8.92091494 L15.6107848,8.92091494 L15.6107848,8.92091494 L15.6107848,8.92091494 Z" id="Path-4" transform="translate(39.911116, 39.685745) rotate(45.000000) translate(-39.911116, -39.685745) "></path>
            </g>
            <g id="icon" transform="translate(181.000000, 91.000000)">
                <path d="M41.087424,82.7132205 C63.7153243,82.7132205 82.0588619,64.3789737 82.0588619,41.7625341 C82.0588619,19.1460945 63.7153243,0.811847727 41.087424,0.811847727 C18.4595236,0.811847727 0.115986091,19.1460945 0.115986091,41.7625341 C0.115986091,64.3789737 18.4595236,82.7132205 41.087424,82.7132205 L41.087424,82.7132205 L41.087424,82.7132205 Z" id="Oval-19" fill="#E73536" transform="translate(41.087424, 41.762534) rotate(-90.000000) translate(-41.087424, -41.762534) "></path>
                <path d="M40.8921428,28.7629106 C39.9591747,29.9067187 39.1121569,30.9450169 38.1814229,32.085868 L40.8641498,32.085868 L43.6050968,32.085868 C42.6702888,30.9408502 41.8227453,29.9028208 40.8921428,28.7629106 L40.8921428,28.7629106 L40.8921428,28.7629106 L40.8921428,28.7629106 Z M50.4029241,39.3755949 C50.9232257,37.9151227 51.3867527,36.614461 51.8816898,35.2250903 C50.4303914,34.9707913 49.1010531,34.737863 47.6798505,34.4889403 C48.5442161,36.0519655 49.3357737,37.4839433 50.1281197,38.9155179 C50.1812144,39.0114849 50.2403545,39.1039573 50.4029241,39.3755949 L50.4029241,39.3755949 L50.4029241,39.3755949 L50.4029241,39.3755949 Z M34.1346622,34.4714673 C32.658525,34.7361157 31.336415,34.9730762 29.9028587,35.2300634 C30.4021326,36.6257512 30.8664482,37.9239936 31.3788644,39.3562402 C32.3274718,37.674802 33.1909174,36.144169 34.1346622,34.4714673 L34.1346622,34.4714673 L34.1346622,34.4714673 L34.1346622,34.4714673 Z M43.6102223,51.3730801 L38.171172,51.3730801 C39.1130768,52.5185011 39.9749454,53.5667454 40.8975311,54.6887795 C41.8289222,53.5503477 42.6792255,52.5109742 43.6102223,51.3730801 L43.6102223,51.3730801 L43.6102223,51.3730801 L43.6102223,51.3730801 Z M50.405684,44.1010949 C49.4560252,45.7880439 48.599545,47.3095371 47.6586915,48.9808948 C49.1300975,48.7177249 50.467584,48.4786139 51.8862896,48.2248524 C51.3811016,46.8180088 50.9182316,45.5286373 50.405684,44.1010949 L50.405684,44.1010949 L50.405684,44.1010949 L50.405684,44.1010949 Z M31.3767617,44.0969283 C30.8610599,45.5434222 30.4009498,46.8344065 29.9029901,48.2314384 C31.3357579,48.4837213 32.6656218,48.7178593 34.1251998,48.9749809 C33.1750153,47.2885696 32.3195865,45.7703021 31.3767617,44.0969283 L31.3767617,44.0969283 L31.3767617,44.0969283 L31.3767617,44.0969283 Z M42.2948148,27.3160135 C43.2222632,28.4684237 44.1753389,29.4532276 44.8902772,30.5939444 C45.6952398,31.8784772 46.6559381,32.5475579 48.1897697,32.6041434 C49.5728598,32.6552183 50.9446476,33.0257799 52.4569259,33.2779284 C52.6693046,31.8476978 52.942532,30.4256661 53.0765829,28.9901937 C53.216285,27.4942379 53.1850064,25.9871262 52.5959709,24.5633472 C52.0194205,23.1699443 51.0174556,22.5448149 49.5756197,22.781641 C46.5536914,23.2778736 44.463417,25.3447926 42.2948148,27.3160135 L42.2948148,27.3160135 L42.2948148,27.3160135 L42.2948148,27.3160135 Z M39.5078699,27.2101003 C38.2865609,26.2427693 37.0766856,25.1808154 35.7612781,24.280285 C34.9207,23.7048863 33.9589504,23.2501856 32.9899725,22.9487095 C30.8435807,22.2808385 29.4511596,23.1406435 28.9308581,25.3771848 C28.3092298,28.0486689 28.8248001,30.6560407 29.3892596,33.2339771 C29.492952,33.2604554 29.5369785,33.2859928 29.5762738,33.2796757 C31.498196,32.9733609 33.4201182,32.6671806 35.3403319,32.34971 C35.4766171,32.3271295 35.6405009,32.2532054 35.7223771,32.1472922 C36.9551198,30.5540253 38.1762974,28.9513499 39.5078699,27.2101003 L39.5078699,27.2101003 L39.5078699,27.2101003 L39.5078699,27.2101003 Z M53.8326563,47.6786202 C54.2638535,47.5419278 54.7243578,47.4149126 55.1717199,47.2506666 C57.2357098,46.4927426 59.2665812,45.6599535 60.8440451,44.0188375 C62.2806242,42.5243602 62.3126913,40.9677865 60.8774265,39.4812392 C58.9226486,37.4566586 56.3738412,36.5878483 53.8371247,35.7766988 C53.0618636,37.7495326 52.3117041,39.6477702 51.5766582,41.5520561 C51.528689,41.676383 51.5627274,41.8607902 51.6145079,41.9946601 C52.3358858,43.860371 53.0671205,45.7219154 53.8326563,47.6786202 L53.8326563,47.6786202 L53.8326563,47.6786202 L53.8326563,47.6786202 Z M27.9524178,47.6791579 C28.7157195,45.7309207 29.448794,43.8701828 30.1680692,42.0039342 C30.2258951,41.8540698 30.2437685,41.6441252 30.1880454,41.4993683 C29.4621991,39.6141683 28.7196622,37.7356886 27.9551776,35.7889299 C25.7443888,36.4417473 23.5576504,37.2541064 21.6889543,38.7516751 C19.2377938,40.7160412 19.250936,42.7808097 21.7126103,44.7305254 C23.5732896,46.204304 25.744126,47.0040288 27.9524178,47.6791579 L27.9524178,47.6791579 L27.9524178,47.6791579 L27.9524178,47.6791579 Z M52.3937117,50.2026593 C50.7157096,50.4729528 49.1291775,50.8285951 47.5254291,50.950906 C46.4899515,51.0299376 45.8946077,51.4761706 45.3214743,52.2988791 C44.4004656,53.6206428 43.3433033,54.8432137 42.2726044,56.1977728 C43.3088706,57.057309 44.2862595,57.9984306 45.3895512,58.7447956 C46.4174063,59.4402202 47.5317374,60.069785 48.6923293,60.4773087 C50.8739423,61.2432972 52.3310232,60.3505624 52.8593415,58.0642902 C53.471376,55.4160586 52.9635595,52.8296545 52.3937117,50.2026593 L52.3937117,50.2026593 L52.3937117,50.2026593 L52.3937117,50.2026593 Z M29.3738832,50.1796756 C29.1931773,51.1612538 28.9860555,52.0953861 28.8548959,53.0405399 C28.6108443,54.797784 28.4957183,56.5637646 28.9794844,58.3012507 C29.5334301,60.2912886 30.8147992,61.0887285 32.7603774,60.5860444 C35.4917306,59.8802704 37.4992089,58.0134842 39.4635805,56.1514022 C38.3416269,54.7152578 37.2267701,53.3644621 36.2043033,51.9440433 C35.7607524,51.3279191 35.302088,50.9889433 34.5435175,51.0091045 C34.0688195,51.0217388 33.5888647,50.9041322 33.1144296,50.8246973 C31.8919377,50.6201291 30.6712858,50.4041362 29.3738832,50.1796756 L29.3738832,50.1796756 L29.3738832,50.1796756 L29.3738832,50.1796756 Z M40.8801833,34.0550727 C39.6329841,34.1119271 38.3857849,34.1468731 37.1431854,34.2437809 C36.8913799,34.2634044 36.5558584,34.455876 36.4300871,34.6726754 C35.1475352,36.8816631 33.8913992,39.1070487 32.6586564,41.3456061 C32.5476045,41.5472174 32.5573297,41.9270531 32.670353,42.1322934 C33.9033587,44.370582 35.1577861,46.5969084 36.440338,48.8057618 C36.5674236,49.0248461 36.9174016,49.2316993 37.1664472,49.2347906 C39.6591372,49.26557 42.1524843,49.2651667 44.6450429,49.2316993 C44.8904086,49.2284735 45.2314499,49.0065666 45.3602439,48.7842566 C46.6410873,46.5743279 47.8955148,44.3480016 49.1268119,42.1086377 C49.2378639,41.9067576 49.2293215,41.5269219 49.1162981,41.3219504 C47.8819783,39.0843338 46.6259738,36.8588139 45.3418448,34.6507669 C45.217782,34.4375966 44.872798,34.2609851 44.617707,34.2416304 C43.3749761,34.1470075 42.1279083,34.1115239 40.8801833,34.0550727 L40.8801833,34.0550727 L40.8801833,34.0550727 L40.8801833,34.0550727 Z M27.4193682,33.7912308 C27.1972643,32.2631515 26.9337622,30.7682709 26.7731639,29.2619657 C26.5841784,27.489668 26.6806425,25.7247627 27.3004309,24.0325719 C28.2425986,21.4601461 30.3849163,20.2773598 33.0021948,20.8733228 C35.3791016,21.414582 37.315086,22.7872861 39.1540806,24.3302846 C39.7429847,24.8243666 40.3007417,25.3572925 40.8628356,25.8636057 C41.8623035,25.0219457 42.7745068,24.0973563 43.8315378,23.4034102 C45.1649502,22.528014 46.5480402,21.6390425 48.03088,21.1131059 C51.4575895,19.8979274 54.1091692,21.594016 54.8326499,25.2485568 C55.3760818,27.9943683 54.9531643,30.6815781 54.3775339,33.3607234 C54.3499352,33.4890826 54.3245707,33.6179794 54.2876409,33.7978167 C55.0008707,34.0443201 55.7049009,34.2686463 56.3955259,34.5298001 C58.3759311,35.2785845 60.2701232,36.1917493 61.8558667,37.6601516 C62.7474368,38.485817 63.4609294,39.441589 63.7494017,40.6609341 C64.1762619,42.4654897 63.5538451,43.9684347 62.3744598,45.2662738 C60.7670316,47.0352114 58.6939735,48.0404453 56.5308911,48.8772666 C55.8177928,49.1532053 55.0882666,49.3843862 54.3211537,49.6518572 C54.5118477,50.7412303 54.7338202,51.8271087 54.8866646,52.9232021 C55.1601547,54.8854177 55.2192948,56.8483053 54.6955763,58.7860587 C53.8485585,61.9199047 51.4780914,63.3217753 48.4109537,62.4901959 C46.0205104,61.8420828 44.0850517,60.3883309 42.2373832,58.7891501 C41.7896268,58.4015187 41.3594811,57.9925166 40.9206615,57.592923 C39.9862477,58.3871371 39.1016431,59.1840394 38.1707777,59.919383 C36.8493248,60.9633263 35.4289107,61.8406043 33.8229281,62.3645248 C30.3653343,63.4924728 27.6953554,61.8977275 26.9624123,58.2720843 C26.4406651,55.6907876 26.7793408,53.1507541 27.2975396,50.618113 C27.3597024,50.3143519 27.4247566,50.0113974 27.494279,49.680486 C26.5079534,49.319333 25.5044114,49.056163 24.5968078,48.5955484 C23.1544462,47.8634306 21.7473058,47.0458296 20.3843234,46.168686 C19.8270921,45.8100867 19.3682963,45.244903 18.9604923,44.6989396 C17.5097197,42.756482 17.5448095,40.5613382 19.0329061,38.6467029 C20.3672385,36.9299155 22.1783715,35.8920205 24.1073906,35.0565433 C25.1917574,34.5869233 26.3144995,34.2099102 27.4193682,33.7912308 L27.4193682,33.7912308 L27.4193682,33.7912308 L27.4193682,33.7912308 Z" id="Fill-1" fill="#FFFFFF" transform="translate(40.889184, 41.723719) rotate(-60.000000) translate(-40.889184, -41.723719) "></path>
                <path d="M41.0847727,46.0142228 C38.7160659,46.0216805 36.8263591,44.1260665 36.8335795,41.7497693 C36.8406637,39.4127945 38.7097991,37.5365706 41.0560273,37.5110788 C43.4105657,37.4854514 45.3362384,39.3924553 45.341279,41.7546507 C45.3463197,44.1329818 43.4740509,46.0066295 41.0847727,46.0142228 L41.0847727,46.0142228 L41.0847727,46.0142228 Z" id="Fill-4" fill="#FFFFFF" transform="translate(41.087424, 41.762534) rotate(-60.000000) translate(-41.087424, -41.762534) "></path>
            </g>
            <g id="icon" transform="translate(0.000000, 92.000000)">
                <path d="M40.9506856,81.9792483 C63.5785859,81.9792483 81.9221235,63.6450015 81.9221235,41.0285619 C81.9221235,18.4121223 63.5785859,0.0778754994 40.9506856,0.0778754994 C18.3227853,0.0778754994 -0.020752312,18.4121223 -0.020752312,41.0285619 C-0.020752312,63.6450015 18.3227853,81.9792483 40.9506856,81.9792483 L40.9506856,81.9792483 L40.9506856,81.9792483 Z" id="Oval-19" fill="#E73536" transform="translate(40.950686, 41.028562) rotate(-90.000000) translate(-40.950686, -41.028562) "></path>
                <path d="M40.8179674,27.9163107 C39.8849993,29.0601188 39.0379815,30.098417 38.1072475,31.2392682 L40.7899744,31.2392682 L43.5309215,31.2392682 C42.5961134,30.0942504 41.7485699,29.056221 40.8179674,27.9163107 L40.8179674,27.9163107 L40.8179674,27.9163107 L40.8179674,27.9163107 Z M50.3287487,38.5289951 C50.8490503,37.0685228 51.3125774,35.7678612 51.8075144,34.3784905 C50.356216,34.1241914 49.0268778,33.8912632 47.6056752,33.6423404 C48.4700407,35.2053656 49.2615983,36.6373435 50.0539444,38.0689181 C50.107039,38.1648851 50.1661792,38.2573575 50.3287487,38.5289951 L50.3287487,38.5289951 L50.3287487,38.5289951 L50.3287487,38.5289951 Z M34.0604868,33.6248675 C32.5843496,33.8895159 31.2622396,34.1264764 29.8286833,34.3834636 C30.3279572,35.7791514 30.7922728,37.0773937 31.304689,38.5096404 C32.2532964,36.8282022 33.1167421,35.2975692 34.0604868,33.6248675 L34.0604868,33.6248675 L34.0604868,33.6248675 L34.0604868,33.6248675 Z M43.5360469,50.5264802 L38.0969966,50.5264802 C39.0389014,51.6719012 39.90077,52.7201456 40.8233557,53.8421797 C41.7547468,52.7037479 42.6050502,51.6643744 43.5360469,50.5264802 L43.5360469,50.5264802 L43.5360469,50.5264802 L43.5360469,50.5264802 Z M50.3315086,43.2544951 C49.3818498,44.9414441 48.5253696,46.4629373 47.5845161,48.134295 C49.0559221,47.871125 50.3934086,47.632014 51.8121142,47.3782526 C51.3069262,45.971409 50.8440563,44.6820375 50.3315086,43.2544951 L50.3315086,43.2544951 L50.3315086,43.2544951 L50.3315086,43.2544951 Z M31.3025863,43.2503285 C30.7868845,44.6968223 30.3267744,45.9878067 29.8288147,47.3848386 C31.2615825,47.6371215 32.5914464,47.8712594 34.0510244,48.128381 C33.1008399,46.4419697 32.2454111,44.9237023 31.3025863,43.2503285 L31.3025863,43.2503285 L31.3025863,43.2503285 L31.3025863,43.2503285 Z M42.2206394,26.4694137 C43.1480878,27.6218238 44.1011636,28.6066278 44.8161018,29.7473446 C45.6210644,31.0318773 46.5817627,31.700958 48.1155943,31.7575436 C49.4986844,31.8086185 50.8704722,32.17918 52.3827505,32.4313286 C52.5951293,31.001098 52.8683566,29.5790663 53.0024075,28.1435939 C53.1421096,26.647638 53.110831,25.1405264 52.5217955,23.7167474 C51.9452451,22.3233445 50.9432802,21.6982151 49.5014443,21.9350411 C46.479516,22.4312738 44.3892416,24.4981928 42.2206394,26.4694137 L42.2206394,26.4694137 L42.2206394,26.4694137 L42.2206394,26.4694137 Z M39.4336945,26.3635005 C38.2123855,25.3961695 37.0025102,24.3342156 35.6871027,23.4336851 C34.8465246,22.8582865 33.884775,22.4035858 32.9157971,22.1021097 C30.7694053,21.4342387 29.3769842,22.2940437 28.8566827,24.530585 C28.2350544,27.2020691 28.7506247,29.8094408 29.3150843,32.3873773 C29.4187766,32.4138556 29.4628031,32.439393 29.5020984,32.4330759 C31.4240206,32.1267611 33.3459428,31.8205807 35.2661566,31.5031102 C35.4024417,31.4805297 35.5663255,31.4066055 35.6482017,31.3006924 C36.8809445,29.7074255 38.1021221,28.1047501 39.4336945,26.3635005 L39.4336945,26.3635005 L39.4336945,26.3635005 L39.4336945,26.3635005 Z M53.758481,46.8320204 C54.1896781,46.6953279 54.6501824,46.5683128 55.0975445,46.4040668 C57.1615344,45.6461427 59.1924058,44.8133537 60.7698698,43.1722377 C62.2064488,41.6777603 62.2385159,40.1211867 60.8032511,38.6346394 C58.8484732,36.6100587 56.2996658,35.7412485 53.7629493,34.930099 C52.9876882,36.9029328 52.2375287,38.8011703 51.5024828,40.7054563 C51.4545136,40.8297832 51.488552,41.0141904 51.5403325,41.1480603 C52.2617104,43.0137712 52.9929451,44.8753155 53.758481,46.8320204 L53.758481,46.8320204 L53.758481,46.8320204 L53.758481,46.8320204 Z M27.8782424,46.832558 C28.6415441,44.8843208 29.3746186,43.023583 30.0938938,41.1573344 C30.1517197,41.00747 30.1695932,40.7975254 30.11387,40.6527685 C29.3880237,38.7675685 28.6454868,36.8890888 27.8810023,34.9423301 C25.6702135,35.5951475 23.483475,36.4075066 21.6147789,37.9050753 C19.1636184,39.8694414 19.1767606,41.9342099 21.6384349,43.8839256 C23.4991142,45.3577042 25.6699506,46.157429 27.8782424,46.832558 L27.8782424,46.832558 L27.8782424,46.832558 L27.8782424,46.832558 Z M52.3195363,49.3560595 C50.6415342,49.626353 49.0550022,49.9819953 47.4512538,50.1043062 C46.4157761,50.1833378 45.8204323,50.6295708 45.2472989,51.4522793 C44.3262903,52.774043 43.2691279,53.9966139 42.198429,55.351173 C43.2346952,56.2107092 44.2120841,57.1518307 45.3153758,57.8981958 C46.3432309,58.5936203 47.457562,59.2231852 48.6181539,59.6307089 C50.7997669,60.3966974 52.2568478,59.5039626 52.7851661,57.2176904 C53.3972006,54.5694588 52.8893842,51.9830547 52.3195363,49.3560595 L52.3195363,49.3560595 L52.3195363,49.3560595 L52.3195363,49.3560595 Z M29.2997078,49.3330758 C29.1190019,50.314654 28.9118801,51.2487863 28.7807205,52.1939401 C28.536669,53.9511842 28.4215429,55.7171647 28.905309,57.4546509 C29.4592547,59.4446888 30.7406238,60.2421287 32.686202,59.7394445 C35.4175552,59.0336706 37.4250335,57.1668844 39.3894052,55.3048024 C38.2674515,53.8686579 37.1525947,52.5178622 36.1301279,51.0974434 C35.686577,50.4813193 35.2279126,50.1423435 34.4693421,50.1625046 C33.9946442,50.175139 33.5146893,50.0575324 33.0402542,49.9780975 C31.8177624,49.7735292 30.5971105,49.5575363 29.2997078,49.3330758 L29.2997078,49.3330758 L29.2997078,49.3330758 L29.2997078,49.3330758 Z M40.806008,33.2084729 C39.5588087,33.2653273 38.3116095,33.3002733 37.06901,33.3971811 C36.8172046,33.4168046 36.481683,33.6092762 36.3559117,33.8260755 C35.0733598,36.0350633 33.8172238,38.2604488 32.5844811,40.4990063 C32.4734291,40.7006176 32.4831543,41.0804533 32.5961777,41.2856936 C33.8291833,43.5239822 35.0836108,45.7503086 36.3661626,47.959162 C36.4932482,48.1782462 36.8432262,48.3850994 37.0922718,48.3881908 C39.5849618,48.4189701 42.0783089,48.4185669 44.5708675,48.3850994 C44.8162332,48.3818737 45.1572745,48.1599668 45.2860686,47.9376568 C46.566912,45.7277281 47.8213394,43.5014017 49.0526366,41.2620379 C49.1636885,41.0601577 49.1551461,40.6803221 49.0421228,40.4753506 C47.8078029,38.237734 46.5517984,36.012214 45.2676694,33.8041671 C45.1436066,33.5909968 44.7986226,33.4143853 44.5435316,33.3950306 C43.3008007,33.3004077 42.0537329,33.2649241 40.806008,33.2084729 L40.806008,33.2084729 L40.806008,33.2084729 L40.806008,33.2084729 Z M27.3451928,32.9446309 C27.1230889,31.4165517 26.8595868,29.9216711 26.6989886,28.4153659 C26.510003,26.6430682 26.6064671,24.8781629 27.2262555,23.185972 C28.1684232,20.6135463 30.3107409,19.43076 32.9280194,20.026723 C35.3049262,20.5679821 37.2409106,21.9406863 39.0799052,23.4836847 C39.6688093,23.9777668 40.2265663,24.5106927 40.7886602,25.0170059 C41.7881281,24.1753459 42.7003314,23.2507565 43.7573624,22.5568104 C45.0907748,21.6814141 46.4738648,20.7924427 47.9567046,20.266506 C51.3834141,19.0513275 54.0349938,20.7474162 54.7584745,24.401957 C55.3019065,27.1477685 54.8789889,29.8349783 54.3033585,32.5141236 C54.2757598,32.6424828 54.2503953,32.7713796 54.2134656,32.9512169 C54.9266953,33.1977203 55.6307255,33.4220465 56.3213506,33.6832003 C58.3017558,34.4319847 60.1959478,35.3451495 61.7816914,36.8135518 C62.6732614,37.6392172 63.386754,38.5949892 63.6752263,39.8143343 C64.1020865,41.6188899 63.4796697,43.1218349 62.3002844,44.419674 C60.6928562,46.1886115 58.6197981,47.1938455 56.4567157,48.0306668 C55.7436174,48.3066054 55.0140912,48.5377864 54.2469783,48.8052574 C54.4376723,49.8946304 54.6596448,50.9805089 54.8124892,52.0766023 C55.0859793,54.0388179 55.1451194,56.0017055 54.6214009,57.9394589 C53.7743831,61.0733049 51.403916,62.4751755 48.3367784,61.6435961 C45.946335,60.9954829 44.0108763,59.5417311 42.1632078,57.9425502 C41.7154515,57.5549189 41.2853057,57.1459168 40.8464861,56.7463232 C39.9120723,57.5405373 39.0274677,58.3374396 38.0966023,59.0727832 C36.7751494,60.1167265 35.3547353,60.9940045 33.7487527,61.517925 C30.2911589,62.645873 27.62118,61.0511277 26.8882369,57.4254845 C26.3664897,54.8441878 26.7051654,52.3041543 27.2233642,49.7715131 C27.285527,49.4677521 27.3505812,49.1647975 27.4201037,48.8338862 C26.433778,48.4727331 25.430236,48.2095632 24.5226324,47.7489486 C23.0802708,47.0168308 21.6731304,46.1992297 20.310148,45.3220862 C19.7529167,44.9634869 19.2941209,44.3983032 18.886317,43.8523398 C17.4355443,41.9098822 17.4706341,39.7147383 18.9587307,37.800103 C20.2930631,36.0833156 22.1041961,35.0454207 24.0332152,34.2099434 C25.117582,33.7403235 26.2403241,33.3633104 27.3451928,32.9446309 L27.3451928,32.9446309 L27.3451928,32.9446309 L27.3451928,32.9446309 Z" id="Fill-1" fill="#FFFFFF" transform="translate(40.815008, 40.877119) rotate(-60.000000) translate(-40.815008, -40.877119) "></path>
                <path d="M40.9480343,45.2802506 C38.5793275,45.2877083 36.6896207,43.3920943 36.6968411,41.0157971 C36.7039253,38.6788223 38.5730607,36.8025984 40.9192888,36.7771066 C43.2738273,36.7514792 45.1994999,38.6584831 45.2045406,41.0206785 C45.2095813,43.3990096 43.3373125,45.2726573 40.9480343,45.2802506 L40.9480343,45.2802506 L40.9480343,45.2802506 Z" id="Fill-4" fill="#FFFFFF" transform="translate(40.950686, 41.028562) rotate(-90.000000) translate(-40.950686, -41.028562) "></path>
            </g>
            <g id="icon" transform="translate(87.000000, 0.000000)">
                <path d="M82.5344404,65.8101119 C94.5212305,45.0483824 87.2605002,18.4154549 66.3171454,6.3238033 C45.3737905,-5.76784825 18.6786336,1.26063864 6.69184343,22.0223682 C-5.2949467,42.7840977 1.9657836,69.4170252 22.9091384,81.5086768 C43.8524933,93.6003283 70.5476503,86.5718414 82.5344404,65.8101119 L82.5344404,65.8101119 L82.5344404,65.8101119 L82.5344404,65.8101119 Z" id="Oval-19" fill="#E73536"></path>
                <path d="M44.5001298,30.2801795 C43.5134095,31.5075228 42.6175914,32.6216505 41.633234,33.8458209 L44.470524,33.8458209 L47.3693885,33.8458209 C46.3807223,32.6171796 45.4843482,31.5033403 44.5001298,30.2801795 L44.5001298,30.2801795 L44.5001298,30.2801795 L44.5001298,30.2801795 Z M54.5588672,41.667935 C55.1091455,40.1008008 55.5993783,38.7051485 56.1228307,37.2143086 C54.587917,36.9414374 53.1819899,36.6914978 51.6789059,36.4243956 C52.5930712,38.1015725 53.4302337,39.6381313 54.2682302,41.1742575 C54.3243839,41.2772331 54.3869313,41.376459 54.5588672,41.667935 L54.5588672,41.667935 L54.5588672,41.667935 L54.5588672,41.667935 Z M37.3533224,36.4056465 C35.7921387,36.6896229 34.3938564,36.9438892 32.8777069,37.2196448 C33.4057461,38.7172633 33.8968129,40.1103196 34.4387515,41.6471668 C35.4420122,39.8429289 36.3552045,38.2005099 37.3533224,36.4056465 L37.3533224,36.4056465 L37.3533224,36.4056465 L37.3533224,36.4056465 Z M47.3748093,54.5416269 L41.6223924,54.5416269 C42.6185644,55.7707009 43.5300888,56.8955011 44.5058286,58.0994802 C45.490881,56.8779059 46.3901739,55.7626243 47.3748093,54.5416269 L47.3748093,54.5416269 L47.3748093,54.5416269 L47.3748093,54.5416269 Z M54.5617861,46.7385503 C53.5574135,48.5487014 52.6515878,50.1813131 51.6565278,51.9747343 C53.2127077,51.6923444 54.6272524,51.4357705 56.1276955,51.1634762 C55.5934016,49.6538872 55.1038637,48.2703497 54.5617861,46.7385503 L54.5617861,46.7385503 L54.5617861,46.7385503 L54.5617861,46.7385503 Z M34.4365276,46.7340793 C33.8911141,48.2862143 33.4044951,49.6714825 32.8778459,51.1705432 C34.3931614,51.441251 35.7996444,51.6924886 37.3433148,51.9683884 C36.3383862,50.1588142 35.4336725,48.5296638 34.4365276,46.7340793 L34.4365276,46.7340793 L34.4365276,46.7340793 L34.4365276,46.7340793 Z M45.9836157,28.7276118 C46.9644982,29.9641855 47.9724847,31.0209122 48.7286135,32.2449383 C49.5799534,33.6232838 50.5960015,34.3412291 52.2182037,34.4019473 C53.6809794,34.4567523 55.1318016,34.8543769 56.7312087,35.1249405 C56.9558234,33.5902566 57.2447925,32.0643703 57.3865666,30.5240617 C57.5343176,28.9188524 57.5012369,27.3016726 56.8782646,25.7739114 C56.2684967,24.2787448 55.2088044,23.6079605 53.6838983,23.8620826 C50.487864,24.3945564 48.2771601,26.6124277 45.9836157,28.7276118 L45.9836157,28.7276118 L45.9836157,28.7276118 L45.9836157,28.7276118 Z M43.0361031,28.6139636 C41.7444294,27.575986 40.4648481,26.4364749 39.0736545,25.4701764 C38.1846471,24.8527549 37.167487,24.3648463 36.1426823,24.0413526 C33.8726279,23.3247053 32.3999836,24.247304 31.8497052,26.6471856 C31.1922623,29.513775 31.7375369,32.3115697 32.3345173,35.0777793 C32.4441837,35.1061914 32.4907468,35.1335939 32.5323061,35.1268154 C34.5649583,34.7981297 36.5976105,34.4695882 38.6284558,34.1289319 C38.7725929,34.1047024 38.9459187,34.0253793 39.0325122,33.9117311 C40.3362784,32.2021039 41.6278132,30.482381 43.0361031,28.6139636 L43.0361031,28.6139636 L43.0361031,28.6139636 L43.0361031,28.6139636 Z M58.1862007,50.5773513 C58.6422409,50.4306758 59.1292768,50.2943845 59.6024133,50.1181432 C61.7853183,49.304866 63.9331968,48.4112562 65.601545,46.6502854 C67.1208914,45.0466626 67.154806,43.3764084 65.6368496,41.7812948 C63.5694488,39.6088539 60.8737939,38.6765922 58.1909265,37.8062024 C57.3709993,39.9231172 56.57762,41.9599879 55.800225,44.0033487 C55.7494921,44.1367555 55.7854916,44.3346304 55.8402554,44.4782772 C56.6031949,46.4802457 57.3765591,48.4777433 58.1862007,50.5773513 L58.1862007,50.5773513 L58.1862007,50.5773513 L58.1862007,50.5773513 Z M30.8148929,50.5779282 C31.6221716,48.4874063 32.3974817,46.490774 33.1581973,44.4882286 C33.2193548,44.3274192 33.238258,44.1021419 33.1793244,43.946813 C32.4116591,41.923932 31.6263414,39.9082622 30.8178118,37.8193268 C28.4796501,38.5198211 26.1669245,39.3915089 24.1905649,40.9984488 C21.5981828,43.1062775 21.6120822,45.3218413 24.2155839,47.4139496 C26.1834648,48.995362 28.4793722,49.8534928 30.8148929,50.5779282 L30.8148929,50.5779282 L30.8148929,50.5779282 L30.8148929,50.5779282 Z M56.6643524,53.2857273 C54.8896736,53.5757611 53.2117347,53.9573769 51.5155876,54.0886204 C50.4204518,54.1734239 49.7908077,54.6522464 49.1846537,55.5350394 C48.2105819,56.9533348 47.0925119,58.2651932 45.9601256,59.7186792 C47.0560955,60.6409895 48.0897958,61.6508435 49.2566527,62.4517174 C50.3437269,63.1979306 51.5222594,63.8734742 52.7497178,64.3107603 C55.0570227,65.132691 56.5980521,64.1747574 57.1568091,61.7215131 C57.8041054,58.8798744 57.2670316,56.1045786 56.6643524,53.2857273 L56.6643524,53.2857273 L56.6643524,53.2857273 L56.6643524,53.2857273 Z M32.3182549,53.261065 C32.1271378,54.3143304 31.9080828,55.3166848 31.7693665,56.3308655 C31.5112542,58.2164456 31.3894952,60.1114002 31.9011331,61.9757794 C32.486994,64.1111548 33.8421881,64.9668337 35.8998593,64.4274373 C38.7885772,63.6701189 40.9117147,61.6669965 42.9892621,59.668922 C41.802668,58.1278923 40.6235796,56.6784445 39.5422042,55.154289 C39.0730985,54.4931677 38.5880085,54.1294357 37.7857336,54.1510692 C37.2836863,54.1646262 36.7760792,54.0384305 36.2743099,53.9531944 C34.9813852,53.733686 33.6904064,53.5019186 32.3182549,53.261065 L32.3182549,53.261065 L32.3182549,53.261065 L32.3182549,53.261065 Z M44.4874813,35.9588417 C43.1684257,36.0198483 41.8493701,36.0573464 40.5351792,36.1613317 C40.2688662,36.1823883 39.9140138,36.3889166 39.7809963,36.6215493 C38.4245512,38.9918651 37.096044,41.3797762 35.7922777,43.7818211 C35.6748276,43.9981566 35.6851131,44.4057327 35.8046482,44.6259622 C37.1086925,47.0277187 38.4353928,49.4166393 39.7918379,51.7868109 C39.9262453,52.0218954 40.2963871,52.2438556 40.5597812,52.2471728 C43.1960856,52.2802 45.8330849,52.2797673 48.4692502,52.2438556 C48.7287525,52.2403942 49.0894426,52.002281 49.225657,51.7637351 C50.5802952,49.3924097 51.9069955,47.0034891 53.2092328,44.6005788 C53.326683,44.3839549 53.3176484,43.9763788 53.1981133,43.7564378 C51.8926791,41.3554024 50.5643108,38.9673471 49.2061978,36.5980409 C49.0749872,36.3693022 48.7101273,36.1797923 48.4403394,36.1590241 C47.1260096,36.0574906 45.8070929,36.0194156 44.4874813,35.9588417 L44.4874813,35.9588417 L44.4874813,35.9588417 L44.4874813,35.9588417 Z M30.2511321,35.6757306 C30.0162318,34.0360519 29.7375483,32.4319964 29.5676973,30.8156819 C29.3678235,28.9139488 29.4698453,27.020148 30.1253423,25.2043722 C31.1217922,22.4440757 33.3875378,21.1749075 36.1556088,21.8143952 C38.6694591,22.3951838 40.7169837,23.86814 42.6619306,25.5238276 C43.2847639,26.0539937 43.8746556,26.6258405 44.4691341,27.169131 C45.5261855,26.2660025 46.4909447,25.273888 47.6088757,24.5292613 C49.0191115,23.5899326 50.4818872,22.6360373 52.0501596,22.0716902 C55.6742962,20.7677641 58.4786446,22.5877224 59.2438081,26.5091636 C59.8185494,29.4555086 59.3712658,32.3389721 58.7624709,35.2137823 C58.7332821,35.3515158 58.7064562,35.4898263 58.6673988,35.6827976 C59.4217208,35.9473038 60.1663131,36.188013 60.896728,36.4682396 C62.9912326,37.2717096 64.9945571,38.2515651 66.6716619,39.8272085 C67.6145991,40.7131744 68.369199,41.7387488 68.6742914,43.0471458 C69.1257448,44.9834926 68.4674679,46.5962015 67.2201333,47.9888251 C65.5200944,49.8869526 63.3275988,50.9656014 61.0398921,51.8635378 C60.2857091,52.159629 59.5141519,52.4076937 58.7028424,52.6946988 C58.9045231,53.8636315 59.1392844,55.0288144 59.3009347,56.2049583 C59.5901818,58.3104794 59.6527292,60.4167217 59.0988371,62.4959941 C58.203019,65.8587128 55.6959793,67.3629655 52.452131,66.4706538 C49.9239642,65.7752073 47.8769956,64.2152843 45.9228752,62.4993112 C45.4493217,62.0833702 44.9943934,61.6444976 44.5302916,61.2157207 C43.5420423,62.0679383 42.6064719,62.9230403 41.6219754,63.712088 C40.224388,64.8322731 38.722138,65.7736209 37.023628,66.3358047 C33.3668277,67.5461296 30.5430201,65.8349159 29.767849,61.9444828 C29.2160418,59.1746676 29.57423,56.4491289 30.1222844,53.7315226 C30.1880287,53.4055772 30.2568309,53.080497 30.3303589,52.7254184 C29.2872069,52.3378894 28.2258466,52.0554995 27.2659522,51.5612451 C25.74049,50.7756588 24.2522784,49.8983463 22.8107688,48.9571427 C22.2214331,48.572354 21.7362041,47.9658936 21.3049049,47.3800571 C19.7705471,45.2957368 19.8076586,42.9402761 21.3814907,40.8858101 C22.7926996,39.0436414 24.7081796,37.9299463 26.7483375,37.0334521 C27.8951792,36.5295347 29.0826073,36.1249873 30.2511321,35.6757306 L30.2511321,35.6757306 L30.2511321,35.6757306 L30.2511321,35.6757306 Z" id="Fill-1" fill="#FFFFFF" transform="translate(44.497000, 44.187549) rotate(-60.000000) translate(-44.497000, -44.187549) "></path>
                <path d="M44.6103529,48.4304172 C42.1184811,48.4383354 40.1305157,46.425691 40.1381115,43.9026873 C40.1455641,41.4214336 42.1118884,39.4293764 44.5801128,39.4023108 C47.0570795,39.3751012 49.0828809,41.3998388 49.0881837,43.90787 C49.0934865,46.4330333 47.1238658,48.4223552 44.6103529,48.4304172 L44.6103529,48.4304172 L44.6103529,48.4304172 Z" id="Fill-4" fill="#FFFFFF" transform="translate(44.613142, 43.916240) rotate(-60.000000) translate(-44.613142, -43.916240) "></path>
            </g>
        </g>
    </g>
</svg>