<?xml version="1.0" encoding="utf-8"?>
<!-- Generator: Adobe Illustrator 14.0.0, SVG Export Plug-In  -->
<!DOCTYPE svg PUBLIC "-//W3C//DTD SVG 1.1//EN" "http://www.w3.org/Graphics/SVG/1.1/DTD/svg11.dtd" [
	<!ENTITY ns_flows "http://ns.adobe.com/Flows/1.0/">
]>
<svg version="1.1"
	 xmlns="http://www.w3.org/2000/svg" xmlns:xlink="http://www.w3.org/1999/xlink" xmlns:a="http://ns.adobe.com/AdobeSVGViewerExtensions/3.0/"
	 x="0px" y="0px" width="283px" height="76px" viewBox="0 0 283 76" enable-background="new 0 0 283 76" xml:space="preserve">
<defs>
</defs>
<path fill="#00B7B7" d="M53.513,0c1.557,0,2.115,0.668,2.115,2.233v17.521c0,1.674-0.778,2.565-2.115,2.565
	c-1.334,0-2.113-0.892-2.113-2.565V5.581c0-1.34-0.556-1.898-1.892-1.898H17.689c-1.336,0-1.892,0.559-1.892,1.898v28.346
	c0,1.341,0.556,1.898,1.892,1.898h17.021c1.336,0,1.892-0.558,1.892-1.898v-7.811c0-1.565,0.779-2.457,2.001-2.457
	c1.224,0,2.004,0.892,2.004,2.457V49.44c0,1.562-0.78,2.457-2.004,2.457c-1.223,0-2.001-0.896-2.001-2.457v-8.147
	c0-1.341-0.556-1.899-1.892-1.899H17.689c-1.336,0-1.892,0.559-1.892,1.899v27.566c0,1.34,0.556,1.898,1.892,1.898h9.901
	c1.446,0,2.226,0.667,2.226,1.783c0,1.228-0.78,1.897-2.226,1.897H2.225C0.78,74.438,0,73.769,0,72.541
	c0-1.116,0.78-1.783,2.225-1.783h7.01c1.334,0,1.891-0.559,1.891-1.898V5.581c0-1.34-0.556-1.898-1.891-1.898h-7.01
	C0.78,3.683,0,3.013,0,1.788C0,0.668,0.78,0,2.225,0H53.513L53.513,0z"/>
<path fill="#00B7B7" d="M81.661,71.091c1.225,0,2.003,0.67,2.003,1.675c0,1.003-0.778,1.673-2.003,1.673h-19.47
	c-1.223,0-2.001-0.67-2.001-1.673c0-1.005,0.778-1.675,2.001-1.675h5.897c1.334,0,1.893-0.558,1.893-1.898V5.244
	c0-1.337-0.558-1.895-1.893-1.895h-5.897c-1.223,0-2.001-0.67-2.001-1.676C60.19,0.559,60.969,0,62.191,0h10.015
	c1.557,0,2.113,0.559,2.113,2.121v67.071c0,1.341,0.556,1.898,1.893,1.898H81.661L81.661,71.091z"/>
<path fill="#00B7B7" d="M127.998,64.396C125.55,72.207,119.543,76,109.752,76c-6.006,0-10.457-1.562-13.684-4.685
	c-3.449-3.46-4.784-7.589-4.784-15.514V28.011c0-1.337-0.556-1.895-1.891-1.895h-5.897c-1.225,0-2.001-0.67-2.001-1.675
	c0-1.007,0.776-1.673,2.001-1.673h10.013c1.559,0,2.115,0.558,2.115,2.119V55.69c0,5.803,0.889,9.264,3.003,11.94
	c2.782,3.349,6.563,4.91,12.126,4.91c11.683,0,17.245-7.029,17.245-21.651V28.011c0-1.337-0.557-1.895-1.893-1.895H120.1
	c-1.225,0-2.003-0.67-2.003-1.675c0-1.007,0.778-1.673,2.003-1.673h10.123c1.559,0,2.114,0.558,2.114,2.119v44.305
	c0,1.341,0.557,1.898,1.891,1.898h6.008c1.225,0,2.003,0.559,2.003,1.675c0,1.115-0.668,1.673-2.003,1.673H130.11
	c-1.557,0-2.112-0.558-2.112-2.119V64.396L127.998,64.396z"/>
<path fill="#00B7B7" d="M185.271,45.868c1.334,0,1.779-0.559,1.779-2.007c0-5.135-2.447-10.717-6.453-14.511
	c-3.337-3.126-7.676-4.688-13.126-4.688c-7.344,0-13.24,3.239-16.356,8.817c-1.89,3.573-3.226,8.036-3.226,10.714
	c0,1.115,0.557,1.674,1.78,1.674H185.271L185.271,45.868z M149.559,49.216c-1.445,0-1.891,0.559-1.891,2.231
	c0,6.142,2.446,12.166,6.676,16.072c3.449,3.238,8.566,5.021,14.572,5.021c9.123,0,15.241-4.352,17.578-12.609
	c0.446-1.564,1-2.122,2.004-2.122c1.111,0,2.001,0.895,2.001,2.011c0,2.678-2.557,7.253-5.674,10.601
	c-3.559,3.46-9.679,5.579-16.688,5.579c-15.687,0-25.031-10.155-25.031-27.229c0-17.075,9.233-27.567,24.476-27.567
	c8.566,0,14.797,2.901,19.136,8.706c2.781,3.906,5.004,11.384,5.004,16.854c0,1.783-0.555,2.453-2.112,2.453H149.559L149.559,49.216
	z"/>
<path fill="#00B7B7" d="M207.123,32.699c3.003-7.478,9.457-11.496,18.135-11.496c12.125,0,18.578,6.028,18.578,17.412v30.577
	c0,1.341,0.557,1.898,1.893,1.898h5.674c1.335,0,2.001,0.559,2.001,1.675c0,1.115-0.666,1.673-2.001,1.673h-19.693
	c-1.223,0-2.003-0.67-2.003-1.673c0-1.005,0.78-1.675,2.003-1.675h5.897c1.336,0,1.893-0.558,1.893-1.898V39.507
	c0-9.485-5.454-14.844-15.243-14.844c-10.569,0-17.133,7.256-17.133,18.749v25.78c0,1.341,0.556,1.898,1.891,1.898h5.897
	c1.225,0,2.001,0.559,2.001,1.675c0,1.115-0.776,1.673-2.001,1.673h-19.804c-1.335,0-2.115-0.67-2.115-1.673
	c0-1.005,0.78-1.675,2.115-1.675h5.785c1.335,0,1.891-0.558,1.891-1.898V28.011c0-1.337-0.556-1.895-1.891-1.895h-5.785
	c-1.335,0-2.115-0.67-2.115-1.675c0-1.007,0.78-1.673,2.115-1.673h9.9c1.559,0,2.115,0.558,2.115,2.119V32.699L207.123,32.699z"/>
<path fill="#00B7B7" d="M264.198,59.708c0,6.025,0.222,7.812,1.224,9.598c1.113,1.898,3.56,3.235,6.119,3.235
	c2.336,0,4.561-1.116,5.673-3.012c1.337-1.898,1.558-2.79,1.893-7.256c0.11-1.116,0.889-1.896,1.891-1.896
	c1.335,0,2.003,0.892,2.003,2.677C283,70.646,278.104,76,271.096,76c-4.116,0-7.567-1.782-9.234-4.796
	c-1.446-2.682-2.003-5.692-2.003-11.496V28.011c0-1.337-0.558-1.895-1.891-1.895h-6.786c-1.224,0-2.004-0.67-2.004-1.675
	c0-1.007,0.78-1.673,2.004-1.673h6.786c1.333,0,1.891-0.559,1.891-1.898v-8.369c0-1.676,0.778-2.681,2.226-2.681
	c1.334,0,2.114,1.005,2.114,2.681v8.369c0,1.34,0.556,1.898,1.891,1.898h13.574c1.223,0,2.001,0.558,2.001,1.673
	c0,1.116-0.778,1.675-2.001,1.675h-13.574c-1.335,0-1.891,0.558-1.891,1.895V59.708L264.198,59.708z"/>
</svg>
