<?xml version="1.0" encoding="utf-8"?>
<!-- Generator: Adobe Illustrator 14.0.0, SVG Export Plug-In  -->
<!DOCTYPE svg PUBLIC "-//W3C//DTD SVG 1.1//EN" "http://www.w3.org/Graphics/SVG/1.1/DTD/svg11.dtd" [
	<!ENTITY ns_flows "http://ns.adobe.com/Flows/1.0/">
]>
<svg version="1.1"
	 xmlns="http://www.w3.org/2000/svg" xmlns:xlink="http://www.w3.org/1999/xlink" xmlns:a="http://ns.adobe.com/AdobeSVGViewerExtensions/3.0/"
	 x="0px" y="0px" width="329px" height="105px" viewBox="0 0 329 105" enable-background="new 0 0 329 105" xml:space="preserve">
<defs>
</defs>
<path fill="#FFFFFF" d="M0.16,98.108v-0.689c0-4.622,2.463-6.915,5.938-6.915c3.533,0,5.896,2.11,5.896,6.854v0.73
	c0,4.62-2.443,6.91-5.938,6.91C2.542,104.999,0.16,102.894,0.16,98.108 M8.882,98.451v-1.175c0-2.999-0.767-4.52-2.827-4.52
	c-1.939,0-2.785,1.582-2.785,4.277v1.175c0,3.021,0.806,4.542,2.845,4.542C8.015,102.751,8.882,101.211,8.882,98.451"/>
<path fill="#FFFFFF" d="M18.286,90.728h4.787c3.271,0,4.826,1.482,4.826,4.4c0,3.02-1.676,4.582-4.726,4.582h-1.96v5.067h-2.927
	V90.728z M22.708,97.662c1.554,0,2.16-0.751,2.16-2.372c0-1.782-0.625-2.391-2.123-2.391h-1.533v4.763H22.708z"/>
<polygon fill="#FFFFFF" points="33.97,90.729 42.33,90.729 42.33,92.961 36.895,92.961 36.895,96.466 41.179,96.466 41.179,98.675 
	36.895,98.675 36.895,102.548 42.47,102.548 42.47,104.777 33.97,104.777 "/>
<path fill="#FFFFFF" d="M48.825,90.729h3.311l3.374,6.832c0.646,1.296,1.252,2.695,1.252,2.695h0.061c0,0-0.082-1.217-0.082-2.88
	v-6.647h2.545v14.048h-2.948l-3.535-7.016c-0.706-1.417-1.435-3.102-1.435-3.102H51.29c0,0,0.062,1.381,0.079,3.268v6.85h-2.543
	V90.729z"/>
<path fill="#FFFFFF" d="M73.208,104.188v-2.249c1.009,0.424,2.223,0.77,3.575,0.77c1.615,0,2.324-0.627,2.324-1.824
	c0-1.094-0.487-1.439-1.779-1.864l-1.051-0.365c-1.918-0.628-3.029-1.683-3.029-4.055c0-2.494,1.556-4.097,4.625-4.097
	c1.799,0,2.727,0.328,3.433,0.671v2.232c-0.787-0.327-1.857-0.631-3.23-0.631c-1.334,0-2.021,0.527-2.021,1.582
	c0,0.951,0.426,1.336,1.577,1.722l1.07,0.346c2.02,0.647,3.312,1.56,3.312,4.154c0,2.738-1.575,4.419-4.908,4.419
	C75.452,104.999,74.077,104.677,73.208,104.188"/>
<path fill="#FFFFFF" d="M87.621,98.108v-0.689c0-4.622,2.462-6.915,5.938-6.915c3.533,0,5.896,2.11,5.896,6.854v0.73
	c0,4.62-2.442,6.91-5.936,6.91C90.002,104.999,87.621,102.894,87.621,98.108 M96.345,98.451v-1.175c0-2.999-0.767-4.52-2.827-4.52
	c-1.939,0-2.787,1.582-2.787,4.277v1.175c0,3.021,0.806,4.542,2.847,4.542C95.478,102.751,96.345,101.211,96.345,98.451"/>
<path fill="#FFFFFF" d="M105.666,100.135v-9.407h2.947v9.287c0,1.984,0.75,2.736,2.384,2.736c1.615,0,2.282-0.752,2.282-2.758
	v-9.266h2.707v9.367c0,3.262-1.617,4.905-5.089,4.905C107.364,105,105.666,103.338,105.666,100.135"/>
<path fill="#FFFFFF" d="M122.742,90.729h4.747c3.191,0,4.746,1.296,4.746,4.196c0,1.985-0.87,2.998-2.241,3.587v0.082l3.026,6.183
	h-3.088l-2.606-5.494h-1.655v5.494h-2.929V90.729z M127.145,97.339c1.495,0,2.102-0.731,2.102-2.271
	c0-1.541-0.587-2.188-2.141-2.188h-1.454v4.46H127.145z"/>
<path fill="#FFFFFF" d="M138.243,98.147v-0.749c0-5.127,2.769-6.895,6.221-6.895c1.456,0,2.484,0.266,3.213,0.651v2.209
	c-0.849-0.326-1.679-0.527-2.808-0.527c-2.16,0-3.474,1.156-3.474,4.317v0.893c0,2.98,0.93,4.62,3.474,4.62
	c1.332,0,2.24-0.323,2.928-0.646v2.21c-0.828,0.446-1.978,0.769-3.536,0.769C140.486,104.999,138.243,102.871,138.243,98.147"/>
<polygon fill="#FFFFFF" points="153.969,90.729 162.329,90.729 162.329,92.961 156.898,92.961 156.898,96.466 161.18,96.466 
	161.18,98.675 156.898,98.675 156.898,102.548 162.473,102.548 162.473,104.777 153.969,104.777 "/>
<path fill="#FFFFFF" d="M176.012,98.147v-0.749c0-5.127,2.766-6.895,6.22-6.895c1.453,0,2.481,0.266,3.212,0.651v2.209
	c-0.852-0.326-1.677-0.527-2.808-0.527c-2.163,0-3.474,1.156-3.474,4.317v0.893c0,2.98,0.929,4.62,3.474,4.62
	c1.331,0,2.242-0.323,2.927-0.646v2.21c-0.828,0.446-1.979,0.769-3.534,0.769C178.252,104.999,176.012,102.871,176.012,98.147"/>
<path fill="#FFFFFF" d="M191.17,98.108v-0.689c0-4.622,2.463-6.915,5.941-6.915c3.531,0,5.893,2.11,5.893,6.854v0.73
	c0,4.62-2.442,6.91-5.937,6.91C193.554,104.999,191.17,102.894,191.17,98.108 M199.895,98.451v-1.175c0-2.999-0.768-4.52-2.827-4.52
	c-1.939,0-2.788,1.582-2.788,4.277v1.175c0,3.021,0.809,4.542,2.85,4.542C199.027,102.751,199.895,101.211,199.895,98.451"/>
<path fill="#FFFFFF" d="M209.298,90.729h3.311l3.371,6.832c0.646,1.296,1.254,2.695,1.254,2.695h0.06c0,0-0.078-1.217-0.078-2.88
	v-6.647h2.543v14.048h-2.949l-3.535-7.016c-0.706-1.417-1.433-3.102-1.433-3.102h-0.081c0,0,0.062,1.381,0.081,3.268v6.85h-2.543
	V90.729z"/>
<path fill="#FFFFFF" d="M225.564,90.729h3.03l2.321,8.128c0.364,1.318,0.627,2.454,0.627,2.454h0.062c0,0,0.28-1.097,0.645-2.476
	l2.302-8.106h2.748l-4.282,14.048h-3.151L225.564,90.729z"/>
<polygon fill="#FFFFFF" points="243.127,90.729 251.485,90.729 251.485,92.961 246.056,92.961 246.056,96.466 250.336,96.466 
	250.336,98.675 246.056,98.675 246.056,102.548 251.627,102.548 251.627,104.777 243.127,104.777 "/>
<path fill="#FFFFFF" d="M257.982,90.729h3.312l3.373,6.832c0.645,1.296,1.251,2.695,1.251,2.695h0.062c0,0-0.081-1.217-0.081-2.88
	v-6.647h2.543v14.048h-2.947l-3.533-7.016c-0.708-1.417-1.437-3.102-1.437-3.102h-0.078c0,0,0.061,1.381,0.078,3.268v6.85h-2.543
	V90.729z"/>
<polygon fill="#FFFFFF" points="277.865,92.959 274.413,92.959 274.413,90.729 284.269,90.729 284.269,92.959 280.813,92.959 
	280.813,104.777 277.865,104.777 "/>
<rect x="290.279" y="90.728" fill="#FFFFFF" width="2.947" height="14.048"/>
<path fill="#FFFFFF" d="M299.543,98.108v-0.689c0-4.622,2.463-6.915,5.939-6.915c3.533,0,5.895,2.11,5.895,6.854v0.73
	c0,4.62-2.443,6.91-5.935,6.91C301.926,104.999,299.543,102.894,299.543,98.108 M308.267,98.451v-1.175
	c0-2.999-0.765-4.52-2.824-4.52c-1.94,0-2.788,1.582-2.788,4.277v1.175c0,3.021,0.808,4.542,2.846,4.542
	C307.399,102.751,308.267,101.211,308.267,98.451"/>
<path fill="#FFFFFF" d="M317.669,90.729h3.312l3.373,6.832c0.646,1.296,1.253,2.695,1.253,2.695h0.06c0,0-0.081-1.217-0.081-2.88
	v-6.647h2.545v14.048h-2.947l-3.536-7.016c-0.705-1.417-1.434-3.102-1.434-3.102h-0.082c0,0,0.062,1.381,0.082,3.268v6.85h-2.545
	V90.729z"/>
<path fill="#FFFFFF" d="M32.089,71.797C12.294,71.797,0,57.458,0,34.379C0,14.137,13.313,0.001,32.377,0.001
	c19.351,0,31.37,13.783,31.37,35.97C63.747,57.734,51.322,71.797,32.089,71.797 M32.377,3.833
	c-16.738,0-27.981,12.276-27.981,30.546c0,21.436,9.935,33.729,27.26,33.729c17.346,0,27.7-11.798,27.7-31.56
	C59.355,15.758,49.523,3.833,32.377,3.833"/>
<path fill="#FFFFFF" d="M97.099,71.797c-11.313,0-18.198-3.521-23.027-11.77l-0.061,7.322c0,1.515-0.738,2.421-1.979,2.421
	c-1.351,0-2.124-0.882-2.124-2.421V48.407c0-1.539,0.773-2.423,2.124-2.423c1.92,0,1.999,1.06,2.268,4.562
	c0.841,10.255,10.096,17.419,22.51,17.419c13.15,0,21.644-6.315,21.644-16.088c0-3.433-1.281-6.46-3.606-8.524
	c-2.748-2.611-5.696-3.703-12.617-4.676l-9.369-1.447c-14.777-2.181-21.657-7.865-21.657-17.889C71.203,7.954,81.318,0,95.802,0
	c9.561,0,16.727,3.309,21.298,9.834l0.058-5.388c0-1.516,0.743-2.42,1.981-2.42c1.353,0,2.127,0.879,2.127,2.42V22.09
	c0,1.537-0.774,2.42-2.127,2.42c-0.595,0-1.981-0.249-1.981-2.566c0.064-4.927-1.515-9.169-4.562-12.269
	c-3.761-3.823-9.565-5.842-16.793-5.842c-11.998,0-20.06,6.116-20.06,15.221c0,7.277,5.607,12.066,15.792,13.488l8.499,1.155
	c11.464,1.749,15.605,3.393,19.264,7.651c2.451,3.232,3.695,6.775,3.695,10.528C122.992,63.791,112.587,71.797,97.099,71.797"/>
<path fill="#B9002D" d="M158.379,71.797c-19.463,0-31.082-13.177-31.082-35.247c0-22.546,11.745-36.55,30.649-36.55
	c10.724,0,19.104,4.766,23.6,13.42l0.062-8.684c0-1.518,0.739-2.422,1.982-2.422c1.348,0,2.123,0.883,2.123,2.422v21.112
	c0,1.537-0.775,2.423-2.123,2.423c-1.68,0-2.131-1.289-2.413-3.822c-0.981-12.717-9.775-20.616-22.943-20.616
	c-15.876,0-26.544,12.913-26.544,32.138c0,8.956,2.429,17.191,6.839,23.19c4.569,6.021,10.923,8.946,19.418,8.946
	c12.221,0,21.114-6.733,22.658-17.155c0.56-3.098,0.894-4.1,2.698-4.1c1.484,0,2.41,1.039,2.41,2.711
	c0,3.841-2.584,9.539-6.289,13.852C174.396,69.056,167.513,71.797,158.379,71.797"/>
<path fill="#B9002D" d="M224.003,71.797c-19.796,0-32.09-14.339-32.09-37.418c0-20.242,13.313-34.378,32.377-34.378
	c19.348,0,31.37,13.783,31.37,35.97C255.66,57.734,243.231,71.797,224.003,71.797 M224.29,3.833
	c-16.736,0-27.985,12.276-27.985,30.546c0,21.436,9.94,33.729,27.265,33.729c17.345,0,27.695-11.798,27.695-31.56
	C251.265,15.758,241.433,3.833,224.29,3.833"/>
<path fill="#B9002D" d="M301.378,69.771c-1.243,0-1.982-0.635-1.982-1.699s0.739-1.698,1.982-1.698h9.36
	c1.229,0,1.622-0.395,1.622-1.627V23.534c0-12.799-7.381-19.849-20.78-19.849c-13.973,0-22.654,9.49-22.654,24.767v36.294
	c0,1.232,0.396,1.627,1.623,1.627h9.22c1.849,0,2.126,1.064,2.126,1.698c0,0.635-0.277,1.699-2.126,1.699h-25.785
	c-1.242,0-1.98-0.635-1.98-1.699s0.738-1.698,1.98-1.698h9.074c1.227,0,1.623-0.395,1.623-1.627V7.05
	c0-1.233-0.396-1.627-1.623-1.627h-9.074c-1.242,0-1.98-0.636-1.98-1.698c0-1.064,0.738-1.699,1.98-1.699h12.533
	c1.646,0,2.409,0.771,2.409,2.419v9.021C273.732,4.534,281.574,0,292.3,0c7.237,0,14.015,2.199,18.126,5.886
	c4.276,3.847,6.187,9.247,6.187,17.503v41.357c0,1.232,0.393,1.627,1.621,1.627h8.787c1.238,0,1.979,0.634,1.979,1.698
	s-0.741,1.699-1.979,1.699H301.378z"/>
</svg>
