<svg id="c03f7c86-4481-4356-a80f-47a1207db16f" data-name="Layer 1" 
  xmlns="http://www.w3.org/2000/svg" viewBox="0 0 479.1 311.06">
  <title>Stitch Fix Corporate Logo (Light)</title>
  <path d="M209.48,88,182.55,61a74,74,0,0,1,7.35-7.9l27.22,27.21ZM191.87,51.38a73.8,73.8,0,0,1,10.92-7.81l25.55,25.55L219,78.48ZM230.2,67.25l-25-25a73.39,73.39,0,0,1,10.64-4.64l22,22Zm20.86,1.86,25.55-25.55a73.79,73.79,0,0,1,10.91,7.81l-27.11,27.1Zm18.87,56.65,26.92,26.93c-1.49,1.83-4.08,4.48-5.81,6.25-.88.9-1.34,1.37-1.57,1.63L262.3,133.4Zm-9.5,9.49,27.09,27.1a74.09,74.09,0,0,1-10.92,7.81l-25.54-25.54ZM249.2,146.5l25,25c-3.3,1.74-9.63,4.24-10.64,4.63l-22-22Zm-9.5,9.5,21.09,21.08a73.32,73.32,0,0,1-42.18,0Zm-11.36-11.36L202.8,170.17a73.73,73.73,0,0,1-10.92-7.81l27.1-27.1Zm24.44-54.79,7.64-7.64,7.64,7.63-7.64,7.65Zm-26.18,34.06L219,131.54l-7.63-7.63,7.63-7.64Zm-16.09-18a1.32,1.32,0,0,0,0,1.87l6.59,6.6L209.47,122l-15.17-15.17L209.48,91.7l7.64,7.64Zm.83-16.11L219,82.21l7.64,7.64L219,97.49Zm9.49-9.5L230.2,71l7.64,7.64L228.48,88ZM250.93,88l-9.36-9.36L249.2,71l9.36,9.36Zm7.65,45.42-9.37,9.37-7.63-7.63,9.37-9.37Zm-30.11-7.63,9.37,9.37-7.63,7.63-9.37-9.37Zm-1-18a1.31,1.31,0,0,0,0-1.86l-6.6-6.59,7.63-7.64,9.36,9.36L233,105.94a1.31,1.31,0,0,0,0,1.86l4.87,4.87L228.47,122l-7.63-7.63Zm8.32-.94,3.94-3.94,3.94,3.94-3.94,3.94Zm3.94,7.67,9.37,9.37-9.37,9.37-9.37-9.37Zm12.26-8.6a1.31,1.31,0,0,0,0,1.86l6.61,6.61L250.94,122l-9.37-9.37,4.88-4.87a1.32,1.32,0,0,0,0-1.86l-4.88-4.87,9.36-9.36,7.64,7.64Zm-21.62-16.1,9.36-9.36,9.36,9.36L239.7,99.2Zm24.42,17,5.67-5.66,5.67,5.67-5.66,5.66Zm-30.11,0L219,112.55l-5.67-5.66,5.68-5.67Zm22.69,37.76-7.63,7.64-7.63-7.64L239.7,137Zm20.73-20.73-7.64,7.63-7.63-7.63,7.63-7.63Zm.82-16.09a1.32,1.32,0,0,0,0-1.87l-6.61-6.6,7.64-7.64,15.17,15.17L269.93,122l-7.63-7.64Zm-36.83-38.7,7.64-7.64,7.64,7.64-7.64,7.64Zm39.73,54.79,16.1-16.1a1.32,1.32,0,0,0,0-1.86L271.8,89.84l26.7-26.71a73.15,73.15,0,0,1,0,87.48Zm-80.28-18a1.32,1.32,0,0,0,0,1.86l16.1,16.1-26.7,26.7a73.15,73.15,0,0,1,0-87.48l26.71,26.71Zm25.6,27.46L189.9,160.61a74.25,74.25,0,0,1-7.35-7.91l26.93-26.93Zm13.1,13.1,7.63,7.63-22,22a73.28,73.28,0,0,1-10.63-4.63ZM269.93,88l-7.64-7.63,27.22-27.21A74.18,74.18,0,0,1,296.86,61ZM241.57,59.61l22-22a73.54,73.54,0,0,1,10.63,4.64l-25,25Zm-23-23a73.33,73.33,0,0,1,42.19,0L239.7,57.75Z" style="fill:#00a19a"/>
  <path d="M51.22,250.06l-.47-.13c-7.35-2-10.81-3.52-10.81-9.4,0-4.87,3-7.78,8-7.78.1,0,10.44.1,13.42,8.62l.13.35h3.23v-13H61.36l-1.31,4.82a16.58,16.58,0,0,0-11.76-4.76c-8.67,0-14.72,5.48-14.72,13.33,0,8.8,7.37,11.39,15.57,13.46s11.71,3.62,11.71,9.74c0,5.36-4.33,7.81-8.35,7.81-6.88,0-11.9-2.69-15.78-8.45l-.11-.26h-3.2V277.5h3.36l1.47-5.75a19,19,0,0,0,13.92,5.75c8.73,0,15.07-6,15.07-14.17C67.23,254.35,59.81,252.36,51.22,250.06Z" style="fill:#ffffff"/>
  <path d="M74,238.83h3.18l.14-1c1-5.29,1.27-5.29,5-5.27h8.48v41H86.2v3.89h15.95v-3.89H97.75v-41H106c3.91,0,4.24,0,5.26,5.24l.14,1h3.18V228.69H74Z" style="fill:#ffffff"/>
  <path d="M149.37,238.83h3.18l.14-1c1-5.29,1.26-5.29,5-5.27h8.48v41H161.7v3.89h15.95v-3.89h-4.5v-41h8.24c3.92,0,4.24,0,5.26,5.24l.14,1H190V228.69H149.37Z" style="fill:#ffffff"/>
  <polygon points="124 232.58 128.51 232.58 128.51 273.61 124 273.61 124 277.5 139.95 277.5 139.95 273.61 135.44 273.61 135.44 232.58 139.95 232.58 139.95 228.69 124 228.69 124 232.58" style="fill:#ffffff"/>
  <polygon points="276.48 232.58 281.07 232.58 281.07 252.5 258.37 252.5 258.37 232.58 262.63 232.58 262.63 228.69 246.69 228.69 246.69 232.58 251.43 232.58 251.43 273.61 247 273.61 247 277.5 262.95 277.5 262.95 273.61 258.37 273.61 258.37 256.44 281.07 256.44 281.07 273.61 276.48 273.61 276.48 277.5 292.43 277.5 292.43 273.61 288 273.61 288 232.58 292.43 232.58 292.43 228.69 276.48 228.69 276.48 232.58" style="fill:#ffffff"/>
  <polygon points="375.68 232.58 380.18 232.58 380.18 273.61 375.68 273.61 375.68 277.5 391.62 277.5 391.62 273.61 387.12 273.61 387.12 232.58 391.62 232.58 391.62 228.69 375.68 228.69 375.68 232.58" style="fill:#ffffff"/>
  <polygon points="445.69 232.58 445.69 228.69 429.74 228.69 429.74 232.58 433.46 232.58 423.17 247.47 413.2 232.58 416.95 232.58 416.95 228.69 401.01 228.69 401.01 232.58 405.54 232.58 419.46 253.25 405.73 273.61 400.73 273.61 400.73 277.5 416.67 277.5 416.67 273.61 411.64 273.61 422.29 257.59 432.86 273.61 428.87 273.61 428.87 277.5 444.82 277.5 444.82 273.61 440.51 273.61 426.12 251.85 439.35 232.58 445.69 232.58" style="fill:#ffffff"/>
  <path d="M329.75,232.58h4.83v41h-4.83v3.89h16v-3.89h-4.2V256.44h7.37c2.78,0,2.91.36,3.93,3.13l.12.31.05.42h3.2V248.11H353l-.07.41-.28.74c-.87,2.3-1.22,3.25-3.77,3.25h-7.37V232.58H358.2c3.22,0,3.91,1,5.67,5.5l.05.41h3.73v-9.8h-37.9Z" style="fill:#ffffff"/>
  <path d="M232.11,258.26c-1.4,9.45-6.67,14.87-14.44,14.87-9.36,0-15.17-7.82-15.17-20.42,0-12,5.68-19.71,14.46-19.71,8.51,0,12.8,5.44,14.89,9.95l.12.38h3.32V228.69h-3.7l-1.33,5.14c-3.32-3.41-7.74-5.14-13.15-5.14-12.52,0-22,10.51-22,24.44,0,7.13,2.11,13.24,6.11,17.68a20.53,20.53,0,0,0,15.49,6.69c11,0,18-6.78,19.58-19.09l.08-.6h-4.24Z" style="fill:#ffffff"/>
</svg>
