<?xml version="1.0" encoding="utf-8"?>
<!-- Generator: Adobe Illustrator 16.0.5, SVG Export Plug-In . SVG Version: 6.00 Build 0)  -->
<!DOCTYPE svg PUBLIC "-//W3C//DTD SVG 1.1//EN" "http://www.w3.org/Graphics/SVG/1.1/DTD/svg11.dtd">
<svg version="1.1" id="Layer_1" xmlns="http://www.w3.org/2000/svg" xmlns:xlink="http://www.w3.org/1999/xlink" x="0px" y="0px"
	 width="612px" height="612px" viewBox="0 90 612 612" enable-background="new 0 90 612 612" xml:space="preserve">
<rect y="90" fill="#F7DF1E" width="612" height="612"/>
<path d="M411.11,568.13c12.33,20.13,28.37,34.92,56.73,34.92c23.83,0,39.05-11.91,39.05-28.37c0-19.72-15.64-26.7-41.87-38.18
	l-14.38-6.17c-41.5-17.68-69.07-39.83-69.07-86.65c0-43.13,32.86-75.97,84.22-75.97c36.56,0,62.85,12.73,81.79,46.05l-44.78,28.75
	c-9.86-17.68-20.5-24.64-37.01-24.64c-16.84,0-27.52,10.69-27.52,24.64c0,17.25,10.69,24.24,35.36,34.92l14.38,6.16
	c48.86,20.95,76.45,42.32,76.45,90.34c0,51.78-40.67,80.14-95.3,80.14c-53.41,0-87.91-25.45-104.8-58.81L411.11,568.13z
	 M207.95,573.11c9.03,16.03,17.25,29.58,37.01,29.58c18.89,0,30.81-7.39,30.81-36.14V371.01h57.51v196.33
	c0,59.55-34.91,86.65-85.87,86.65c-46.05,0-72.71-23.83-86.27-52.53L207.95,573.11z"/>
<g>
	<path fill="#010000" d="M447.7,127.28c1.53,1.07,3.11,2.2,3.95,3.93c3.63,6.33,7.38,12.76,8.67,20.03c2.33-0.02,4.67-0.02,7.02,0
		c2.27-8.74,5.88-17.91,12.49-24.26c-2.49,8.98-8.32,16.74-9.45,26.14c4.53-2.19,10.06-4.27,14.93-1.79
		c7.16,4.5,8.74,14.13,7.11,21.86c-1,6.97-9.29,10.25-8.39,17.79c4.26-4.3,8.62-8.48,12.78-12.85c7.5-8.76,10.65-20.72,19.66-28.26
		c4.87-4.16,8.94-9.28,14.43-12.69c-2.59,6.02-8.01,10.08-12.08,15.02c-9.06,9.37-11.86,22.96-20.86,32.35
		c-4.46,4.85-8.9,9.72-13.31,14.63c20.97-6.04,42.01-12.67,63.8-14.93c10.88-1.21,23.92,11.48,17.67,22.32
		c-6.75,9.26-18.91,11.91-29.38,14.63c-0.02,7.13-0.32,15.89-6.98,20.22c-7.87,5.08-17.81,1.92-26.12-0.39
		c12.26,9.81,13.67,27.1,24.7,37.85c3.68,4.58,9.17,8.17,10.47,14.25c-6.97-4.76-12.69-11.09-18.84-16.81
		c-6.25-8.62-9.47-19.23-16.65-27.26c0.76,8.42,1.54,16.88,0.34,25.31c5.54,8.12,8.85,17.47,13.68,25.98
		c5.07,7,11.93,12.53,16.81,19.69c-5.97-0.73-9.31-6.65-13.81-10.06c-8.92-6.95-12.37-18.13-17.84-27.6
		c-3.24,15.18-10.56,30.75-24.1,39.24c-9.38,6.04-22.13,5.62-31.28-0.64c-11.64-7.47-17.95-20.55-21.95-33.32l1.62-1
		c-0.5-0.2-1.51-0.59-2.03-0.78c-3.41,5.97-6.04,12.38-9.92,18.07c-3.94,4.35-8.58,8.01-12.74,12.16c-2.13,1.74-4.02,4.53-7.23,3.96
		c4.96-7.45,12.19-13.03,17.19-20.42c3.93-7.41,7.36-15.09,11.07-22.61c-0.89-8.35-2.08-17.08,0.82-25.18
		c-7.91,8.17-9.67,21.02-18.86,28.31c-5.1,4.16-9.19,9.69-15.12,12.73c3.79-9.47,13.83-14.63,18.15-23.8
		c4.99-10.08,8.85-21.02,17.31-28.86c-8.89,3-19.71,6.5-28.31,0.96c-6.56-4.35-6.45-13.01-6.4-19.99
		c-10.57-2.75-22.98-5.26-29.8-14.63c-5.17-7.91,1.63-16.78,8.73-20.44c5.42-3.5,12.08-1.49,18-0.84
		c18.89,3.25,37.39,8.5,55.73,14.04c-5.94-6.24-11.82-12.55-17.38-19.1c-6.61-9.51-10.08-21.15-18.55-29.34
		c-3.7-4.44-8.73-8.12-10.63-13.81c6.75,4.87,12.55,10.93,18.46,16.74c5.51,7.14,8.83,15.73,14.23,22.94
		c4.41,4.85,9.24,9.28,13.81,13.97c-0.34-2.13-0.69-4.27-1.08-6.38c-9.35-7.62-10.18-23.67-1.35-31.94
		c4.51-4.16,11.16-1.56,16.08,0.36C455.96,143.58,450.58,135.87,447.7,127.28z"/>
	<path fill="#FFFFFF" d="M444.54,156.48c3.77-2.61,8.39,0.59,9.68,4.42c3.08,6.45,1.21,17.04-6.54,19.05
		C437.52,177.63,437.82,162.36,444.54,156.48z"/>
	<path fill="#FFFFFF" d="M473.47,174.09c-2.88-7.07-0.96-19.62,9.01-18.64c6.7,5.99,7.86,18.75-0.44,23.83
		C478.13,181.42,474.79,177.35,473.47,174.09z"/>
	<path fill="#FFFFFF" d="M365.75,205.05c-5.22-5.87,2.08-12.73,7.34-15.23c7.38-1.08,14.73,0.53,21.91,1.97
		c18.45,3.82,36.54,9.15,54.6,14.48c-10.63,5.76-17.04,16.56-21.59,27.37c-6.42,2.92-13.24,4.73-20.19,5.97
		c-3.47-1.05-7.64-1.28-9.97-4.48c-3.63-5.15-2.6-11.8-2.19-17.7C385.32,214.6,373.89,212.57,365.75,205.05z"/>
	<path fill="#FFFFFF" d="M477.38,206.49c20.62-6.25,41.37-12.21,62.57-16.14c5.95-0.71,13.1-2.47,18.06,2.01
		c4.03,2.72,7.45,8.89,3,12.87c-8,7.61-19.39,9.54-29.68,12.33c0.34,6.79,2.03,15.94-4.89,20.15c-9.3,4.32-19.41-1.08-28.1-4.57
		C494.03,222.56,487.4,212.45,477.38,206.49z"/>
	<path fill="#F9CF4B" d="M426.02,253.13c6.22-5.69,15.16-5.69,23.05-6.45c17.56-1.05,36.31-2.03,52.73,5.3
		c-2.75,2.4-5.97,4.23-9.63,4.74c-17.93,3.18-36.38,3.11-54.38,0.41C433.66,256.47,429.77,254.9,426.02,253.13z"/>
	<path fill="#F9CF4B" d="M432.36,281.08c1.76-2.95,4.71-4.76,8.07-5.31c11.59-2.19,23.51-3.29,35.26-1.74
		c6.42,0.83,13.37,0.93,18.88,4.75c1.48,3.04-2.19,3.69-4.21,4.69c-8.73,2.65-17.97,2.97-27.01,3.29
		C452.85,286.16,441.91,286.04,432.36,281.08z"/>
	<path fill="#F9CF4B" d="M441.09,305.05c9.61-5.22,20.83-4.21,31.37-4.03c5.4,0.14,10.64,1.81,15.27,4.6
		c-7.18,7.48-18.59,5.78-27.97,6.04C453.3,311.1,444.77,311.58,441.09,305.05z"/>
</g>
</svg>
