<svg xmlns="http://www.w3.org/2000/svg" width="84.4" height="84.4" viewBox="0 0 84.4 84.4"><circle fill="#FFF" stroke="#BA4F16" stroke-miterlimit="10" cx="42.2" cy="42.2" r="41.7"/><circle fill-rule="evenodd" clip-rule="evenodd" fill="#FD92A3" cx="42.2" cy="42.2" r="38.7"/><path fill="#FFF" d="M57.9 26c1.7 0 3.2.1 4.4.5-.3 0-.5-.1-.8-.1-2.4 0-4.8 2-4.8 6.4 0 2.3 1.1 3.8 2.1 5.4 1.2 1.7 2.4 3.5 2.4 6.7 0 5.1-2.8 13.2-3.7 15.8H40.8C39.8 58 37 50 37 44.9c0-3.2 1.2-4.9 2.4-6.7 1-1.5 2.1-3.1 2.1-5.4 0-3.9-1.8-5.9-3.9-6.3.6-.3 1.6-.5 2.3-.5H57.9m0-1.4H40c-1.6 0-4.9.9-4.3 3.3.4-.1.7-.2 1.1-.2 1.8 0 3.4 1.6 3.4 5.1 0 4.2-4.5 5.5-4.5 12S39.9 62 39.9 62h18.6s4.2-10.7 4.2-17.2-4.5-7.8-4.5-12c0-3.5 1.6-5.1 3.5-5.1.4 0 .7.1 1.1.2 2.3 1.2 4.4 6 3.3 9.6-1.1 3.6-2.7 5.6-2.7 7.2 0 1.3 1 3.3 2.1 3.3.2 0 .4-.1.6-.2.9-.6-.5-1.7-.5-2.8 0-1.1 3.2-5.7 3.2-9.3 0-3.6-1.3-6.7-3.5-9-2.1-1.9-4.6-2.1-7.4-2.1z"/><path opacity=".41" fill="#FFF" d="M57.9 26c1.7 0 3.2.1 4.4.5-.3 0-.5-.1-.8-.1-2.4 0-4.8 2-4.8 6.4 0 2.3 1.1 3.8 2.1 5.4 1.2 1.7 2.4 3.5 2.4 6.7 0 5.1-2.8 13.2-3.7 15.8H40.8C39.8 58 37 50 37 44.9c0-3.2 1.2-4.9 2.4-6.7 1-1.5 2.1-3.1 2.1-5.4 0-3.9-1.8-5.9-3.9-6.3.6-.3 1.6-.5 2.3-.5H57.9"/><path fill="#781D15" d="M36.1 29.1c.2-.1.5-.1.7-.1 1.4 0 2.2 1.5 2.2 3.9 0 1.5-.7 2.5-1.7 3.9-1.3 1.8-2.9 4.1-2.9 8.1 0 6.6 4.1 17.2 4.2 17.6l.3.8H59.1l.3-.8c.1-.4 3-7.7 3.9-14 .5.5 1.1.8 1.8.8.5 0 .9-.1 1.3-.4.6-.4.9-1.1.8-1.8-.1-.4-.3-.8-.4-1.2-.1-.3-.3-.6-.3-.8.1-.3.5-1.1.8-1.8 1-2.1 2.3-4.9 2.3-7.5 0-3.8-1.4-7.3-3.9-9.9-2.2-2.2-5.1-2.4-8.1-2.4H40c-1.2 0-3.7.4-4.9 2-.6.8-.8 1.8-.6 2.8.2.9.4 1.2 1.6.8zM65.5 45c0 1.1 1.4 2.2.5 2.8-1.3.9-2.7-1.5-2.7-3.1s1.6-3.7 2.7-7.2c1.1-3.6-1-8.3-3.3-9.6-2.2-.7-4.5.7-4.5 4.9s4.5 5.5 4.5 12S58.5 62 58.5 62H39.8s-4.2-10.7-4.2-17.2 4.5-7.8 4.5-12-2.3-5.6-4.5-4.9c-.6-2.4 2.7-3.3 4.3-3.3h16.2c3.5 0 6.7-.2 8.9 2 2.2 2.3 3.5 5.4 3.5 9 .1 3.7-3 8.2-3 9.4zM61 36.7c-.9-1.4-1.7-2.4-1.7-3.9 0-2.4.9-3.9 2.2-3.9.2 0 .4 0 .6.1.8.5 1.7 1.7 2.3 3.2.6 1.7.8 3.5.3 4.9-.5 1.5-1 2.7-1.5 3.8-.5-1.7-1.4-3-2.2-4.2z"/><path fill="#FFEF94" d="M39.4 38.2c-1.2 1.7-2.4 3.5-2.4 6.7 0 5.1 2.8 13.2 3.7 15.8h16.8c1-2.6 3.7-10.7 3.7-15.8 0-3.2-1.2-4.9-2.4-6.7-.6-.8-1.2-1.7-1.6-2.7H41c-.4 1-1 1.9-1.6 2.7z"/><path fill="#FFF" d="M49.6 39.5c-.3-.3-.8-.3-1 0l-2.4 2.4c-.3.3-.3.8 0 1l2.4 2.4c.3.3.8.3 1 0l2.4-2.4c.3-.3.3-.8 0-1l-2.4-2.4zM57.1 39.5c-.3-.3-.8-.3-1 0l-2.4 2.4c-.3.3-.3.8 0 1l2.4 2.4c.3.3.8.3 1 0l2.4-2.4c.3-.3.3-.8 0-1l-2.4-2.4zM42.1 39.5c-.3-.3-.8-.3-1 0l-2.4 2.4c-.3.3-.3.8 0 1l2.4 2.4c.3.3.8.3 1 0l2.4-2.4c.3-.3.3-.8 0-1l-2.4-2.4zM45.9 34.2c-.3-.3-.8-.3-1 0l-2.4 2.4c-.3.3-.3.8 0 1l2.4 2.4c.3.3.8.3 1 0l2.4-2.4c.3-.3.3-.8 0-1l-2.4-2.4zM53.4 34.2c-.3-.3-.8-.3-1 0L50 36.6c-.3.3-.3.8 0 1l2.4 2.4c.3.3.8.3 1 0l2.4-2.4c.3-.3.3-.8 0-1l-2.4-2.4zM45.9 50.7c-.3.3-.8.3-1 0l-2.4-2.4c-.3-.3-.3-.8 0-1l2.4-2.4c.3-.3.8-.3 1 0l2.4 2.4c.3.3.3.8 0 1l-2.4 2.4zM53.4 50.7c-.3.3-.8.3-1 0L50 48.2c-.3-.3-.3-.8 0-1l2.4-2.4c.3-.3.8-.3 1 0l2.4 2.4c.3.3.3.8 0 1l-2.4 2.5z"/><path fill="#FFE800" d="M44.6 42.3c3 0 5.4 2.4 5.4 5.4 0 3-2.4 5.4-5.4 5.4-3 0-5.4-2.4-5.4-5.4.1-3 2.5-5.4 5.4-5.4m0-.7c-3.3 0-6 2.7-6 6s2.7 6 6 6 6-2.7 6-6c.1-3.3-2.7-6-6-6zm-.4 5.5L43 43.3c-.8.3-1.5.8-2 1.4l3.2 2.4zm.8 0l3.2-2.3c-.5-.6-1.2-1.1-2-1.4L45 47.1zm4.3.8h-4l3.2 2.3c.5-.6.8-1.4.8-2.3zm-4-.5h4c0-.9-.3-1.7-.8-2.3l-3.2 2.3zm-.7-.5l1.2-3.8c-.3-.1-.8-.1-1.2-.1-.4 0-.8.1-1.2.2l1.2 3.7zm.4 1.4l1.2 3.8c.8-.3 1.5-.8 2-1.4L45 48.3zm-.4.1l-1.2 3.8c.4.1.8.2 1.2.2.4 0 .8-.1 1.2-.2l-1.2-3.8zm-3.9-3.3c-.4.7-.7 1.5-.8 2.3h4l-3.2-2.3zm3.2 2.8h-4c0 .9.3 1.7.8 2.3l3.2-2.3zm.3.4L41 50.6c.5.6 1.2 1.2 2 1.4l1.2-3.7z"/><path fill="#FFF" d="M44.6 42.3c-3 0-5.4 2.4-5.4 5.4 0 3 2.4 5.4 5.4 5.4 3 0 5.4-2.4 5.4-5.4 0-3-2.4-5.4-5.4-5.4zm3.9 2.8c.4.7.7 1.5.8 2.3h-4l3.2-2.3zm-.2-.4L45 47.1l1.2-3.8c.9.3 1.5.8 2.1 1.4zM44.6 43c.4 0 .8.1 1.2.2L44.6 47l-1.2-3.8c.4-.2.8-.2 1.2-.2zm-1.6.3l1.2 3.8-3.2-2.4c.5-.6 1.2-1.1 2-1.4zm.9 4.1h-4c0-.9.3-1.7.8-2.3l3.2 2.3zm-3.2 2.8c-.4-.7-.7-1.5-.8-2.3h4l-3.2 2.3zm.3.4l3.2-2.3-1.2 3.8c-.8-.3-1.5-.9-2-1.5zm3.6 1.8c-.4 0-.8-.1-1.2-.2l1.2-3.8 1.2 3.8c-.3.1-.8.2-1.2.2zm1.7-.3L45 48.3l3.2 2.3c-.5.6-1.1 1.2-1.9 1.5zm-1-4.2h4c0 .9-.3 1.7-.8 2.3l-3.2-2.3z"/><path fill="#FFE800" d="M52.3 48.1c3 0 5.4 2.4 5.4 5.4 0 3-2.4 5.4-5.4 5.4-3 0-5.4-2.4-5.4-5.4 0-3 2.4-5.4 5.4-5.4m0-.7c-3.3 0-6 2.7-6 6s2.7 6 6 6 6-2.7 6-6-2.7-6-6-6zm-.5 5.5l-1.2-3.8c-.8.3-1.5.8-2 1.4l3.2 2.4zm.9 0l3.2-2.3c-.5-.6-1.2-1.2-2-1.4l-1.2 3.7zm4.2.8h-4l3.2 2.3c.5-.6.8-1.5.8-2.3zm-3.9-.5h4c0-.9-.3-1.7-.8-2.3L53 53.2zm-.7-.5l1.2-3.8c-.4-.1-.8-.2-1.2-.2-.4 0-.8.1-1.2.2l1.2 3.8zm.4 1.4l1.2 3.8c.8-.3 1.5-.8 2-1.4l-3.2-2.4zm-.4.1L51 58c.4.1.8.2 1.2.2.4 0 .8-.1 1.2-.2l-1.1-3.8zm-4-3.3c-.4.7-.7 1.5-.8 2.3h4l-3.2-2.3zm3.3 2.8h-4c0 .9.3 1.7.8 2.3l3.2-2.3zm.2.4l-3.2 2.3c.5.6 1.2 1.2 2 1.4l1.2-3.7z"/><path fill="#FFF" d="M52.3 48.1c-3 0-5.4 2.4-5.4 5.4 0 3 2.4 5.4 5.4 5.4 3 0 5.4-2.4 5.4-5.4-.1-3-2.5-5.4-5.4-5.4zm3.9 2.8c.4.7.7 1.5.8 2.3h-4l3.2-2.3zm-.3-.4l-3.2 2.3 1.2-3.8c.8.4 1.5.9 2 1.5zm-3.6-1.7c.4 0 .8.1 1.2.2l-1.2 3.8-1.3-3.9c.4-.1.8-.1 1.3-.1zm-1.7.3l1.2 3.8-3.2-2.3c.5-.7 1.2-1.2 2-1.5zm1 4.1h-4c0-.9.3-1.7.8-2.3l3.2 2.3zM48.3 56c-.4-.7-.7-1.5-.8-2.3h4L48.3 56zm.3.4l3.2-2.3-1.2 3.8c-.8-.4-1.5-.9-2-1.5zm3.7 1.7c-.4 0-.8-.1-1.2-.2l1.2-3.8 1.2 3.8c-.4.2-.8.2-1.2.2zm1.6-.3L52.7 54l3.2 2.3c-.5.7-1.2 1.2-2 1.5zm-.9-4.1h4c0 .9-.3 1.7-.8 2.3L53 53.7zM59.7 26.9c1-.4.8-.8 0-.8v-.5h3.1v1.7h-3.1v-.4zM38.5 26.8c-.4-.2-.4-.5 0-.6V26l-1.2.4.1.4 1.1.2v-.2z"/><g><path opacity=".41" fill="#FFF" d="M32.8 37.6l-1.1 23.2h-7.8l-1-23.2h9.9"/><path fill="#FFEF94" d="M23.1 42.4l.8 18.4h7.8l.8-18.4"/><path fill="#FFF" d="M24.78 59.676l6.32-32.694.98.19-6.32 32.694z"/><path fill="#FFF" d="M26.4 41.4c-.3-.3-.8-.3-1 0L23 43.9c-.3.3-.3.8 0 1l2.4 2.4c.3.3.8.3 1 0l2.4-2.4c.3-.3.3-.8 0-1l-2.4-2.5z"/><path fill="#781D15" d="M27 47.9l.6 2.1-.4 2.1-.6-2.1.4-2.1zm2.5-7.8l-.6-2.1-.4 2.1.6 2.1.4-2.1zm-1.2 6.6l-.6-2.1-.4 2.1.6 2.1.4-2.1zM31.1 27l.6 2.1.4-2-1-.2v.1zm-2.8 14.4l-.4 2.1.6 2.1.4-2.1-.6-2.1zm-3.5 18.2l1 .2-.6-2.1-.4 1.9zm1.1-1l.4-2.1-.6-2.1-.4 2.1.6 2.1zm1.1-5.3l-.6-2.1-.4 2.1.6 2.1.4-2.1zm3.8-19.7l-.6-2.1-.4 2.1.6 2.1.4-2.1zm0-5.4l-.4 2.1.6 2.1.4-2.1-.6-2.1zm-.6 8.7l-.6-2.1-.4 2.1.6 2.1.4-2.1z"/><path fill="#FFF" d="M30.1 46.8c-.3-.3-.8-.3-1 0l-2.4 2.4c-.3.3-.3.8 0 1l2.4 2.4c.3.3.8.3 1 0l2.4-2.4c.3-.3.3-.8 0-1l-2.4-2.4z"/><path fill="#FFF" d="M32.8 37.6l-1.1 23.2H24l-1.1-23.2h9.9m1.2-1.2H21.6L22.8 62h10.1L34 36.4z"/><path fill="#781D15" d="M34 35.1H20.3l.1 1.3L21.5 62l.1 1.2H34l.1-1.2 1.2-25.6.1-1.3H34zM32.9 62H22.8l-1.2-25.6H34L32.9 62z"/><path fill="#FEF07F" d="M21.5 30.1c-3.6 0-6.6 2.9-6.6 6.6 0 2.8 1.8 5.2 4.3 6.2l.2-.7.2-.7 1.3-4.1.5-1.4 1.3-4.1.2-.7.2-.7c-.4-.3-1-.4-1.6-.4z"/><path fill="#FFE800" d="M21 36l-1.3-4.1c-.9.3-1.6.9-2.2 1.6L21 36zm.5-.1l1.3-4.1c-.4-.1-.9-.2-1.3-.2-.5 0-.9.1-1.3.2l1.3 4.1zm-4.3-2c-.5.7-.8 1.6-.8 2.5h4.3l-3.5-2.5zm3.5 3h-4.3c0 .9.3 1.8.8 2.5l3.5-2.5zm.3.4l-3.5 2.5c.6.7 1.3 1.2 2.2 1.6l1.3-4.1z"/><path fill="#FFE800" d="M19.5 42.1l-.2.7c-2.5-.9-4.3-3.3-4.3-6.2 0-3.6 2.9-6.6 6.6-6.6.6 0 1.2.1 1.8.3l-.3.7c-.5-.1-1-.2-1.6-.2-3.2 0-5.8 2.6-5.8 5.8 0 2.5 1.5 4.7 3.8 5.5z"/><path fill="#FFF" d="M21.5 30.8c-3.2 0-5.8 2.6-5.8 5.8 0 2.5 1.6 4.6 3.8 5.5l.2-.7c-.9-.3-1.6-.9-2.2-1.6l3.5-2.5.5-1.4-1.3-4.1c.4-.1.9-.2 1.3-.2.5 0 .9.1 1.3.2l.2-.7c-.4-.2-1-.3-1.5-.3zm-4.3 8.6c-.5-.7-.8-1.6-.8-2.5h4.3l-3.5 2.5zm-.8-3c0-.9.3-1.8.8-2.5l3.5 2.5h-4.3zM21 36l-3.5-2.5c.6-.7 1.3-1.2 2.2-1.6L21 36z"/></g><path fill="#FFF" d="M57.6 68.1l1.4 1.3 1.7-1-.8 1.8 1.5 1.3-2-.2-.7 1.8-.4-1.9-2-.2 1.7-1"/><g fill="#FFF"><path d="M29 70.3l-1.5-.7.5-1.2 4.3 1.9-.5 1.2-1.5-.7-1.6 3.7-1.4-.6 1.7-3.6zM33.1 70.6l4.2 1-.3 1.3-2.8-.7-.2.8 2.5.6-.3 1.1-2.5-.6-.2.9 2.8.7-.3 1.2-4.3-1 1.4-5.3zM39.4 74.5l-1.6-2.7 1.7.1.9 1.6 1-1.5 1.7.1-1.9 2.5 1.7 2.9-1.7-.1-.9-1.7-1.1 1.6-1.7-.1 1.9-2.7zM45.5 71.7l1.4-.2 3 5.1-1.6.2-.5-.9-2.1.3-.3 1-1.4.2 1.5-5.7zm1.8 3.1l-.8-1.4-.4 1.6 1.2-.2zM50.8 75.5l.5-1.2c.6.2 1.3.3 1.9.1.4-.1.5-.3.5-.5-.1-.2-.3-.3-1-.2-1.2.1-2.1.1-2.5-1-.3-1 .2-1.9 1.4-2.3.9-.3 1.6-.3 2.3 0l-.4 1.2c-.6-.2-1.2-.2-1.6 0-.3.1-.5.3-.4.5.1.2.3.3 1.1.2 1.3-.1 2.1 0 2.4 1 .4 1-.3 1.9-1.5 2.4-.9.2-1.9.2-2.7-.2zM64.3 68.1l.4-2.5c.1-.6 0-.9-.2-1.2-.2-.2-.6-.2-.8 0-.3.3-.3.6-.3 1.2l-1.3.1c-.1-.9 0-1.6.8-2.4.8-.8 1.9-.9 2.6-.2.6.6.6 1.3.4 2.2l-.2 1.1 1.6-1.6.8.9-3.1 3-.7-.6zM67.1 63.2c-1.3-.9-1.7-2.4-.8-3.7.9-1.2 2.5-1.3 3.7-.4 1.2.9 1.7 2.4.8 3.7-.9 1.3-2.5 1.3-3.7.4zm2-2.8c-.7-.5-1.5-.5-1.8-.1-.3.5-.1 1.2.6 1.7s1.4.5 1.8.1c.4-.6.1-1.2-.6-1.7zM69.6 56.8l-.2.9-1.2-.3.3-1.6.5-1 4.8 2.5-.7 1.3-3.5-1.8zM74.4 55.1c-.5.2-1.2.3-2.1 0-1.6-.6-2.5-1.8-2-3.3.2-.7.6-1.1 1.2-1.5l.8 1c-.3.2-.6.5-.7.9-.2.6.1 1.1.7 1.3-.1-.3-.2-.7 0-1.2.3-.9 1.2-1.5 2.2-1.1 1.1.4 1.5 1.6 1.1 2.7-.4.6-.7 1-1.2 1.2zm-.4-2.6c-.4-.1-.8 0-.9.5-.2.4 0 .8.4.9.4.1.8 0 .9-.5.1-.4-.1-.8-.4-.9z"/></g><g fill="#FFF"><path d="M9.6 28.8l1.7-3.5 1 .5-1 2.2 1.1.5.8-1.8 1 .5-.8 1.8 2.1 1-.5 1.3-5.4-2.5zM12.1 23.9l1.3-1.8c.9-1.3 1.9-1.4 2.8-.8.6.4.9 1 .8 1.7l2.9.1-.9 1.3-2.5-.1-.5.7 1.7 1.2-.8 1.1-4.8-3.4zm3.2 0c.5-.8.4-1.1 0-1.4-.4-.3-.8-.2-1.2.4l-.3.5 1.3.9.2-.4zM18 16.6c1.5-1.4 3.3-1.3 4.4-.1 1.1 1.2 1.3 3.2-.3 4.6-1.5 1.4-3.3 1.2-4.4 0-1.1-1.1-1.3-3.1.3-4.5zm3.3 3.6c.9-.8.7-2 0-2.7-.7-.7-1.7-.9-2.6-.1-.9.8-.7 1.9 0 2.7.6.6 1.7 1 2.6.1zM21.9 13.3l1.2-.7 4.1 2-1.9-3.3 1.2-.7 3 5.1-1.2.7-4.1-2 1.9 3.3-1.2.7-3-5.1zM30.1 10.4l-1.8.6-.4-1.1 4.8-1.7.4 1.1-1.7.6 1.6 4.5-1.3.5-1.6-4.5zM36.3 7.5l2.2-.2c1.6-.3 2.4.6 2.5 1.6.1 1.3-.7 2.2-2 2.3l-.9.1.2 1.8-1.3.3-.7-5.9zm2.4 2.6c.7-.1 1-.5.9-1-.1-.5-.3-.8-1.1-.8l-.7.1.2 1.8.7-.1zM45.3 7.1c2 .2 3.1 1.6 3 3.2-.1 1.6-1.6 3.1-3.6 2.9-2-.2-3.1-1.7-2.9-3.3.1-1.6 1.4-3 3.5-2.8zm-.5 4.9c1.2.1 2-.8 2.1-1.8.1-1-.5-1.9-1.7-2-1.2-.1-1.9.7-2 1.7-.1.9.4 2 1.6 2.1zM50.3 7.9l2.1.6C53.9 9 54.3 10 54 11c-.2.7-.7 1.1-1.3 1.3l.8 2.8-1.6-.5-.7-2.4-.7-.2-.6 2-1.3-.4 1.7-5.7zm1 3.1c.9.3 1.2 0 1.3-.4s0-.8-.7-1l-.6-.2-.5 1.5.5.1zM59.1 11.3c1.2.7 1.6 1.4 1.6 1.4l-1 .8s-.3-.6-1.2-1.1c-1-.5-2.1-.3-2.6.7-.6 1.1 0 2.1.8 2.5 1 .5 1.7.3 1.7.3V17s-1 .3-2.4-.5c-1.5-.8-2.4-2.4-1.5-4.1 1-1.4 2.8-2.1 4.6-1.1zM62.3 13.3l1.1.9-1.5 1.8 2.1 1.7 1.5-1.8 1.1.9-3.8 4.6-1.1-.9 1.6-1.9-2.1-1.7-1.6 1.9-1.1-.9 3.8-4.6z"/></g></svg>