<svg viewBox="0 0 32 32" class="w-svg" xmlns="http://www.w3.org/2000/svg"
  aria-labelledby="headerBrowserStackLogoImgTitle headerBrowserStackLogoImgDesc"
  role="img">
  <title id="headerBrowserStackLogoImgTitle">BrowserStack Logo</title>
  <desc id="headerBrowserStackLogoImgDesc">An illustration of BrowserStack Logo
  </desc>
  <g fill="none" fill-rule="evenodd">
    <g>
      <path
        d="m31.0344828 15.5172414c0 8.5701882-6.9470532 15.5172414-15.5172414 15.5172414-8.56989423 0-15.5172414-6.9470532-15.5172414-15.5172414 0-8.56989423 6.94734717-15.5172414 15.5172414-15.5172414 8.5701882 0 15.5172414 6.94734717 15.5172414 15.5172414"
        fill="#ecb360"></path>
      <path
        d="m26.8965517 13.9655172c0 7.7128847-6.0213369 13.9655173-13.4482758 13.9655173-7.42722227 0-13.4482759-6.2526326-13.4482759-13.9655173 0-7.71288459 6.02105363-13.9655172 13.4482759-13.9655172 7.4269389 0 13.4482758 6.25263261 13.4482758 13.9655172"
        fill="#d76835"></path>
      <path
        d="m27.9310345 12.4136422c0 6.8560652-5.3263006 12.413944-11.8969855 12.413944-6.5698174 0-11.89611797-5.5578788-11.89611797-12.413944 0-6.85576335 5.32630057-12.4136422 11.89611797-12.4136422 6.5706849 0 11.8969855 5.55787885 11.8969855 12.4136422"
        fill="#d33a41"></path>
      <path
        d="m26.8965517 13.4484262c0 6.2843054-4.8632703 11.37916-10.8622124 11.37916-5.9989422 0-10.86192551-5.0948546-10.86192551-11.37916 0-6.28490677 4.86298331-11.37946068 10.86192551-11.37946068 5.9989421 0 10.8622124 5.09455391 10.8622124 11.37946068"
        fill="#b6cb46"></path>
      <path
        d="m25.862069 14.4826111c0 5.7133106-4.6316645 10.3449751-10.3449751 10.3449751-5.71301565 0-10.34468011-4.6316645-10.34468011-10.3449751 0-5.71331065 4.63166446-10.34468007 10.34468011-10.34468007 5.7133106 0 10.3449751 4.63136942 10.3449751 10.34468007"
        fill="#66ad4a"></path>
      <path
        d="m21.7241379 12.4137931c0 4.5706247-3.7052373 8.2758621-8.275862 8.2758621-4.57090515 0-8.27586211-3.7052374-8.27586211-8.2758621 0-4.57062469 3.70495696-8.27586207 8.27586211-8.27586207 4.5706247 0 8.275862 3.70523738 8.275862 8.27586207"
        fill="#aed7dc"></path>
      <path
        d="m22.7586207 11.3793103c0 3.9991764-3.2419755 7.2413794-7.2415259 7.2413794-3.9995505 0-7.24123273-3.242203-7.24123273-7.2413794 0-3.99946945 3.24168223-7.24137927 7.24123273-7.24137927 3.9995504 0 7.2415259 3.24190982 7.2415259 7.24137927"
        fill="#5bb1cf"></path>
      <path
        d="m22.7586207 11.8963967c0 3.7136422-2.7788402 6.724293-6.2068966 6.724293s-6.2068965-3.0106508-6.2068965-6.724293c0-3.71333217 2.7788401-6.72398291 6.2068965-6.72398291s6.2068966 3.01065074 6.2068966 6.72398291"
        fill="#25a8c3"></path>
      <path
        d="m20.6896552 12.9308813c0 3.1423524-2.315869 5.6898084-5.1725531 5.6898084-2.8564055 0-5.1722745-2.547456-5.1722745-5.6898084 0-3.14235241 2.315869-5.68950199 5.1722745-5.68950199 2.8566841 0 5.1725531 2.54714958 5.1725531 5.68950199">
      </path>
      <path
        d="m15.5171021 18.6206897c-2.8564055 0-5.1722745-2.547456-5.1722745-5.6898084 0-3.14235241 2.315869-5.68950199 5.1722745-5.68950199 2.8566841 0 5.1725531 2.54714958 5.1725531 5.68950199 0 3.1423524-2.315869 5.6898084-5.1725531 5.6898084z"
        fill="#1b1a18"></path>
      <path
        d="m18.3395432 11.2904163c-.4920811.8231975-1.4595626 1.299291-2.16129 1.062668-.7017274-.2363383-.8715674-1.0956984-.3798654-1.9191807.4920811-.82348231 1.4595626-1.29929107 2.16129-1.06295279s.8715674 1.09569839.3798654 1.91946549"
        fill="#fffffe"></path>
    </g>
  </g>
</svg>
