<svg xmlns="http://www.w3.org/2000/svg" fill="none" viewBox="0 0 25 25"
  class="css-1kpzp8t">
  <circle cx="12" cy="12" r="12" fill="#FC521F"></circle>
  <path fill="#fff" fill-rule="evenodd"
    d="m14.82 17.52-1.907-1.1 5.737-3.309a4.31 4.31 0 0 0 .62-.435 3.347 3.347 0 0 1 .154 3.611 3.372 3.372 0 0 1-4.604 1.233Zm-.46.795c.22.127.45.234.688.32a3.35 3.35 0 0 1-3.054 1.938 3.373 3.373 0 0 1-3.37-3.367v-6.619l2.911 1.68v4.153a.46.46 0 0 0 .23.397l2.596 1.498Zm-6.864-.344a3.383 3.383 0 0 1-2.92-1.683 3.343 3.343 0 0 1-.337-2.556c.233-.869.79-1.595 1.57-2.044l1.906-1.1v6.617c0 .254.022.505.067.754a3.4 3.4 0 0 1-.286.012Zm7.418-8.179-2.91 1.679-3.6-2.077a.46.46 0 0 0-.459 0L5.35 10.892c-.22.126-.428.272-.621.435a3.349 3.349 0 0 1-.154-3.611A3.385 3.385 0 0 1 7.497 6.03c.588 0 1.169.156 1.682.452l5.735 3.31Zm-2.92-6.362c1.859 0 3.37 1.51 3.37 3.368v2.2L9.629 5.689a4.261 4.261 0 0 0-.688-.32 3.351 3.351 0 0 1 3.053-1.939Zm7.43 4.287a3.37 3.37 0 0 1-1.234 4.6l-5.736 3.308v-3.357l3.6-2.077a.459.459 0 0 0 .23-.398V6.798c0-.253-.023-.505-.066-.753a3.383 3.383 0 0 1 3.206 1.672Z"
    clip-rule="evenodd"></path>
</svg>
