<svg viewBox="0 0 38 27" xmlns="http://www.w3.org/2000/svg"
  xmlns:xlink="http://www.w3.org/1999/xlink">
  <title>docs</title>
  <desc>Created with Sketch.</desc>
  <defs></defs>
  <g id="Blind-whale" stroke="none" stroke-width="1" fill="none"
    fill-rule="evenodd">
    <g id="docs" fill="#fff">
      <path
        d="M37.2114674 10.9008887C36.4018592 10.3391362 34.5465072 10.128479 33.0959592 10.4093552 32.9272908 9.00497385 32.1514163 7.77614015 30.8020694 6.68774458L30.0261949 6.12599203 29.4864561 6.93351132C28.8117826 7.98679735 28.4744459 9.4613978 28.5756469 10.8657792 28.6093806 11.3573127 28.778049 12.235051 29.2840541 13.0074608 28.8117826 13.2883371 27.8335061 13.6394324 26.5516265 13.6394324H2.16218026L2.09471291 13.9203087c-.23613572 1.4043813-.23613572 5.7930732 2.53002554 9.1635885 2.09148778 2.562996 5.19498578 3.8620487 9.27676035 3.8620487 8.8382225.0 15.3825553-4.2482536 18.4523196-11.9372417 1.2144122.0351096000000002 3.8119051.0 5.1275184-2.633215C37.5150705 12.3052701 37.5825378 12.1648319 37.8186736 11.6381889L37.9536082 11.3573127 37.2114674 10.9008887zM21.6602438 1H17.9495396V4.51095344h3.7107042V1zm0 4.21314413H17.9495396V8.72409758h3.7107042V5.21314413zm-4.3853776.0H13.564162V8.72409758h3.7107042V5.21314413zm-4.3853776.0H9.17878443V8.72409758H12.8894886V5.21314413zM8.50411095 9.42628826H4.79340682V12.9372417H8.50411095V9.42628826zm4.38537765.0H9.17878443V12.9372417H12.8894886V9.42628826zm4.3853776.0H13.564162V12.9372417h3.7107042V9.42628826zm4.3853776.0H17.9495396V12.9372417h3.7107042V9.42628826zm4.3853776.0H22.3349172V12.9372417h3.7107042V9.42628826z"
        id="Shape"></path>
    </g>
  </g>
</svg>
