<svg xmlns:xlink="http://www.w3.org/1999/xlink"
  xmlns="http://www.w3.org/2000/svg" viewBox="0 0 39 39" fill="none">
  <g clip-path="url(#clip0)">
    <path
      d="M34.9582 12.4497L25.4353 2.85763C24.3075 1.78506 22.9642 0.968339 21.496 0.462547C18.2425 -0.627198 15.0046 0.223425 12.3823 2.85763L2.83603 12.4497C1.7699 13.5843 0.958069 14.9357 0.455313 16.4128C-0.631789 19.686 0.213735 22.9434 2.83603 25.5776L12.3706 35.1698C13.4965 36.2427 14.8387 37.0595 16.306 37.5648C17.1949 37.8671 18.1263 38.0233 19.0646 38.0274C21.3518 38.0274 23.5416 37.0552 25.4197 35.1698L34.9504 25.5776C36.0179 24.4435 36.8311 23.092 37.335 21.6146C38.4182 18.3414 37.5727 15.0879 34.9504 12.4497H34.9582ZM19.6296 5.64079C20.3499 5.87311 21.0136 6.25507 21.5778 6.7619L24.3949 9.59994L18.901 15.1231L13.407 9.59602L16.2397 6.7423C16.9995 5.98183 18.071 5.17432 19.6374 5.63687L19.6296 5.64079ZM5.61028 18.2709C5.84194 17.5457 6.22299 16.8779 6.72856 16.3109L9.54567 13.4768L15.0396 19.0039L9.54178 24.531L6.70908 21.6773C5.94927 20.9168 5.15051 19.8388 5.60639 18.263L5.61028 18.2709ZM18.1646 32.3748C17.4434 32.1446 16.7792 31.7624 16.2164 31.2537L13.407 28.451L18.901 22.9199L24.3949 28.447L21.5622 31.3008C20.8024 32.0612 19.7348 32.8687 18.1646 32.4062V32.3748ZM32.1917 19.7722C31.9601 20.4965 31.5805 21.1642 31.0773 21.7322L28.2602 24.531L22.7662 19.0039L28.2602 13.4768L31.0929 16.3266C31.8527 17.087 32.6515 18.165 32.1956 19.7408"
      fill="#fff" />
  </g>
  <defs>
    <clipPath id="clip0">
      <rect width="173.5" height="38.0274" fill="white" />
    </clipPath>
  </defs>
</svg>
