<?xml version="1.0" standalone="no"?>
<!DOCTYPE svg
  PUBLIC "-//W3C//DTD SVG 20010904//EN" "http://www.w3.org/TR/2001/REC-SVG-20010904/DTD/svg10.dtd">
<svg version="1.0" xmlns="http://www.w3.org/2000/svg" width="260.000000pt"
  height="260.000000pt" viewBox="0 0 260.000000 260.000000"
  preserveAspectRatio="xMidYMid meet">
  <metadata>
    Created by potrace 1.11, written by Peter Selinger 2001-2013
  </metadata>
  <g transform="translate(0.000000,260.000000) scale(0.100000,-0.100000)"
    fill="#fff" stroke="none">
    <path d="M1268 2382 c-28 -49 -191 -310 -205 -327 -5 -5 -58 -89 -119 -185
-292 -461 -367 -647 -366 -910 1 -351 221 -661 537 -755 86 -26 255 -28 342
-5 244 64 427 236 518 485 13 36 21 65 19 65 -2 0 1 11 6 25 29 76 29 266 0
393 -19 87 -73 239 -91 257 -5 5 -9 15 -9 22 0 22 -141 259 -317 534 -93 145
-194 304 -223 352 -30 49 -56 90 -60 92 -3 2 -18 -17 -32 -43z m183 -857 c192
-305 229 -394 224 -545 -8 -237 -203 -417 -420 -388 -150 20 -271 131 -320
295 -18 58 -12 205 10 268 28 81 101 217 176 326 21 32 39 62 39 67 0 5 6 15
14 21 7 6 38 52 67 101 41 68 57 86 65 77 7 -7 71 -106 145 -222z" />
  </g>
</svg>
