<svg viewBox="0 0 30 30" xmlns="http://www.w3.org/2000/svg">
  <g fill="#FFF" fill-rule="evenodd">
    <path
      d="M14.767 27.573c3.11-11.19 3.02-11.24 5.267-19.217l.54.314c.294.17.534.03.534-.31V4.557c.596-2.102 1.064-3.726 1.2-4.215h2.435l4.045 3.772-2.656 2.31 2.01 2.186L14.9 27.573c-.065.107-.155.083-.135 0z" />
    <path
      d="M16.214 3.457c.12 0 .217.066.217.15v1.95c0 .08-.09.148-.21.148h-3.27c-.12 0-.22-.067-.22-.15v-1.95c0-.082.1-.148.22-.148h3.27zm4.036-2.16l-3.598 2.09c.042.065.067.14.067.22v1.95c0 .1-.04.19-.11.265l3.63 2.11c.24.145.45.027.45-.26V1.56c0-.288-.21-.406-.45-.262zm-7.813 4.26v-1.95c0-.08.025-.155.066-.22l-3.598-2.09c-.247-.143-.45-.025-.45.262v6.11c0 .29.202.4.45.26l3.635-2.11c-.065-.08-.104-.17-.104-.27z" />
    <path
      d="M14.246 27.573h.134c-3.11-11.19-3.02-11.24-5.266-19.217l-.54.314c-.294.17-.535.03-.535-.31V4.557C7.44 2.454 6.97.83 6.83.34H4.4L.36 4.113l2.655 2.31-2.01 2.186 13.24 18.96z" />
    <ellipse cx="14.475" cy="8.787" rx=".982" ry=".988" />
    <ellipse cx="14.475" cy="14.664" rx=".982" ry=".988" />
    <ellipse cx="14.475" cy="20.541" rx=".982" ry=".988" />
  </g>
</svg>
