<svg viewBox="9 2 25 24" fill="none" xmlns="http://www.w3.org/2000/svg">
  <defs>
    <linearGradient id="logo-ring-gradient" x1="15.0234" y1="4.00556"
      x2="3.64419" y2="15.3847" gradientUnits="userSpaceOnUse">
      <stop stop-color="#0096FF"></stop>
      <stop offset="1" stop-color="#FF1E56"></stop>
    </linearGradient>
    <linearGradient id="gradient">
      <stop offset="0%" stop-color="#000000"></stop>
      <stop offset="25%" stop-color="#ffffff"></stop>
      <stop offset="85%" stop-color="#ffffff"></stop>
      <stop offset="100%" stop-color="#000000"></stop>
    </linearGradient>
    <mask id="logo-mask">
      <rect x="0" y="0" width="46" height="26" fill="url(#gradient)"
        transform="translate(-8,0)"></rect>
    </mask>
  </defs>
  <g mask="url(#logo-mask)" transform="translate(8,0)">
    <g class="z-0 relative" opacity="1"
      transform-origin="13.5600004196167px 13.5600004196167px"
      style="transform: none; transform-origin: 13.56px 13.56px;">
      <path fill-rule="evenodd" clip-rule="evenodd"
        d="M10.9443 10.4846C10.6829 10.4846 10.4709 10.6966 10.4709 10.958V16.2234C10.4709 16.4849 10.6829 16.6968 10.9443 16.6968H16.2097C16.4712 16.6968 16.6831 16.4849 16.6831 16.2234V10.958C16.6831 10.6966 16.4712 10.4846 16.2097 10.4846H10.9443ZM7.14628 6.72631C6.90676 6.72631 6.71263 6.92045 6.71263 7.15994V20.0215C6.71263 20.261 6.90676 20.4551 7.14628 20.4551H20.0078C20.2473 20.4551 20.4414 20.261 20.4414 20.0215V7.15994C20.4414 6.92045 20.2473 6.72631 20.0078 6.72631H7.14628Z"
        fill="white"></path>
      <path fill-rule="evenodd" clip-rule="evenodd"
        d="M2 13.8059V22.1684C2 22.7295 2.15656 23.254 2.42838 23.7007L5.44339 20.6857V13.8059H2ZM3.37481 24.664L6.36423 21.6745C6.38505 21.6758 6.40605 21.6765 6.42723 21.6765H13.0144V25.12H4.95147C4.37169 25.12 3.83094 24.9528 3.37481 24.664ZM14.3648 25.12H22.1684C23.7985 25.12 25.12 23.7985 25.12 22.1684V4.95147C25.12 3.32142 23.7985 2 22.1684 2H13.8059V5.44339H20.6927C21.236 5.44339 21.6765 5.88386 21.6765 6.42723V20.6927C21.6765 21.2361 21.236 21.6765 20.6927 21.6765H14.3648V25.12Z"
        fill="url(#logo-ring-gradient)"></path>
    </g>
  </g>
</svg>
