<svg height="34" viewBox="0 0 100 34" width="100" xmlns="http://www.w3.org/2000/svg"><g fill="#f6682f" fill-rule="evenodd"><path d="m42.496944 20.9184031c-.2607382-.02108-.4925054-.0527001-.6735736-.1018868-.1846895-.0491867-.3440295-.1229667-.4671559-.2283668-.1158836-.0948601-.2064177-.2178269-.2788449-.3478203l-4.1283542-6.334545v6.260765c.0072427.1335067-.0434563.2740402-.1339904.3829536-.1013982.1089134-.23901.1862068-.4055927.2424202-.1738254.0562134-.3802432.0948601-.6301172.1194534-.2534954.0245934-.5685541.0386467-.9451758.0386467-.3802432 0-.6880591-.0175667-.9487972-.0386467-.2534954-.0245933-.4599131-.06324-.6337386-.1194534-.1629613-.0597267-.3005731-.1335068-.3983499-.2424202-.0869128-.1089134-.1339905-.2494469-.1339905-.3829536v-19.34091522c0-.14053344.0470777-.27404021.1339905-.38295363.0977768-.12296677.2317672-.20026016.3983499-.26350021.1702041-.06324005.3766218-.10540008.6301172-.13702011.2571168-.03162002.5685541-.04216003.9524186-.04216003.3766217 0 .6953017.01054001.9487971.04216003.2498741.03162003.4562918.07378006.6264959.13702011s.3041945.14404678.4019713.26350021c.0869127.10540008.1303691.24242019.1303691.38295363v10.91944852l3.6322274-4.73246367c.0869127-.13350677.1955536-.24944686.3041945-.34782027.1267477-.11242675.289709-.18972015.4780199-.24593352.1846896-.05621338.4019713-.09134674.6590881-.11945343.2607382-.02459335.5794182-.03513336.966904-.03513336.3802432 0 .7025445.01405334.966904.03513336.2716023.02810669.4925054.06324005.6663309.11945343.1738254.05972671.3223013.12999343.4236995.25296019.0869127.10540009.1339904.24944687.1303691.39349365 0 .17918014-.0434564.36538695-.1267478.55159376-.0869127.18620681-.2064177.37592696-.3766217.57970046l-3.8567519 4.2405967 4.5085972 6.7456052c.1303691.2002602.2209032.3829537.2824664.5410538.0651845.1581001.0941554.3056602.0941554.4567337.0036214.1335068-.0362136.2705269-.1231263.375927-.0941555.1229667-.23901.1967468-.4055927.2459335-.1702041.0491867-.3766218.0878334-.6373599.1089134-.2643596.0245934-.6011464.0386467-1.0103604.0386467-.4092141.0035133-.7532436-.01054-1.0212244-.03162"/><path d="m99.6703639 8.96558561c-.2349555-.68154492-.6108841-1.25418318-1.1241714-1.69332295-.5060578-.43913977-1.1567036-.76234664-1.9338638-.96962061-.7735455-.20727397-1.6989084-.30564128-2.772474-.30564128-.60004 0-1.1892359.04918366-1.7675877.14403785-.5675077.09485419-1.0880243.21430021-1.5723939.36536429-.4843697.14755096-.9036747.31266751-1.272374.49183654-.3578552.1756559-.6253429.33725934-.7988484.50588901-.1626615.16511655-.2747171.35482493-.336167.5620989-.0578352.20727397-.0831381.46021848-.0831381.772886 0 .23537891.0108441.45319224.0469911.64992685.0289176.19673462.0759087.37239053.1445879.51994149.0650646.147551.1482027.2705101.2674878.3688774.119285.0948542.2711024.1440378.4265344.1440378.2204966 0 .4482227-.0843148.7229398-.2283526.2494142-.1334985.5675077-.2845626.947051-.44967915.3686993-.15809032.8024632-.30564128 1.2976769-.44616601.4735255-.13349849 1.0229598-.20024773 1.6410732-.20024773.4735256 0 .8602984.05269677 1.1567037.14403784.3036347.08782795.5313607.22132644.7012515.39698235.1735056.18268214.2964053.4075217.3759287.6920843.0795234.2845625.1192851.6323612.1192851 1.0293436v.5972301h-1.1097126c-1.2109241 0-2.2808749.0878279-3.2026231.2740232-.9253629.179169-1.7097525.4567054-2.3495542.8361221-.6398017.3829299-1.1241713.8782796-1.4458795 1.4719965-.3253229.5972301-.4843696 1.2963406-.4843696 2.0832791 0 .7272154.1265144 1.3701161.383158 1.932215.2530289.5585857.6108841 1.0258305 1.0699509 1.4017341.4590667.3759036 1.0085009.6604662 1.6266144.8466615.6289576.1861952 1.3049063.2810494 2.0386901.2810494.8964453 0 1.7169819-.1686296 2.4543805-.5023759.5891959-.2705101 1.1241713-.625335 1.6121557-1.0574485v.5726382c-.0036147.1756559.0614498.3477987.191579.4672447.1373585.1229592.3144788.1791691.5385901.2213265.2313407.0351312.5675077.0526968 1.0301892.0526968.4301491 0 .7590867-.0175656.9940421-.0526968.2313407-.0386443.4229198-.1018804.5675077-.2107871.1518174-.1089067.2313406-.2915888.2277261-.4777841v-8.8284659c.0108445-.9169238-.1048263-1.71791475-.3289376-2.40297279zm-3.8062778 7.76750419c-.4301492.4707579-.8602984.8255828-1.2687593 1.0715011-.4156904.2459182-.8675277.3688774-1.3699709.3688774-.6036547-.0035131-1.0446479-.1440379-1.3591267-.4215742-.3108641-.2740232-.4626814-.6393875-.4699108-1.1487896 0-.2986151.0578351-.5550727.1662761-.7693729.1156704-.2178133.2819465-.4040086.5349754-.5691252.2385701-.1545772.5711224-.2810494.9904275-.3653642.4120757-.0843149.9181335-.1264723 1.5254029-.1264723h.0072294 1.247071v1.9603199z"/><path d="m85.0103405 10.0054686c-.2492833-.80801719-.6430786-1.51064082-1.1777732-2.11138403-.5383073-.6007432-1.2211267-1.0644748-2.0484581-1.3947079-.8309442-.33725934-1.8244645-.5023759-2.9733352-.5023759-1.0910659 0-2.0809734.17565591-2.958884.53048084-.8779106.35482494-1.6293732.86774019-2.2435494 1.54577199-.617789.67451868-1.0838403 1.48956209-1.4017668 2.4486433-.3215393.9625944-.4805025 2.0305823-.4805025 3.2180163 0 1.2401307.1481248 2.3256842.4516001 3.2671998.3034753.9380026.7767522 1.7214279 1.4053796 2.3397367.6286274.6218219 1.4089924 1.0855535 2.341095 1.3841686.9284899.3056413 2.0014917.4531922 3.2190057.4531922.671981 0 1.3078339-.0421574 1.9003333-.1264722.5924993-.0843149 1.1199683-.1861953 1.5824068-.2986151.4552129-.1124198.8381698-.2318658 1.1452579-.3513118.3034753-.1264722.4841153-.207274.6105634-.3302331.0686432-.0772886.1372864-.1616034.1878656-.2529445.0505792-.1018804.0830945-.207274.1083841-.32672.0216768-.1159329.0397408-.2564576.054192-.4145479.0108384-.1580903.0108384-.3442856.0108384-.565612 0-.2494314-.0072256-.4567054-.0216768-.6288482-.018064-.1721428-.0433536-.3161806-.0975457-.4321135-.0505792-.1159329-.126448-.2143002-.2384448-.2775364-.0975456-.0562099-.2095425-.0772886-.3287649-.0772886-.1914785 0-.4082465.0562099-.6611426.1545772-.2312192.087828-.5383073.1897084-.9032002.3021282-.3576673.1124198-.7875906.2107871-1.2861572.3021282-.4913409.0878279-1.0549379.1370116-1.7088548.1370116-.6430786 0-1.1813859-.0808018-1.6221477-.2388921-.4443745-.1580903-.798429-.3829298-1.0693891-.6745187-.27096-.298615-.4732769-.6499268-.6033377-1.0855535-.1119968-.3829298-.1806401-.804504-.1987041-1.2647225h8.0131926c.4046337 0 .7550754-.1299854 1.0007459-.3899561.2601216-.266997.3648929-.6569531.3648929-1.1347372v-.5866907c0-.9380025-.1264481-1.812769-.3721185-2.617273zm-8.9922617 1.9462674c.0325152-.3688774.0975457-.7166761.2023169-1.0469092.1156096-.386443.2854113-.7166761.5057921-.99421241.2167681-.27402322.491341-.49183654.8273314-.65695309.3251521-.16160344.7117218-.24240516 1.1669348-.24240516.9176514.00351312 1.5498916.27402322 1.9653637.8115303.3974081.50940216.599725 1.21553886.599725 2.13246276h-5.2674639z"/><path d="m59.2193913 10.006396c-.2492833-.80820409-.6430786-1.51099029-1.1777731-2.11187249-.5419201-.6008822-1.2247395-1.06472109-2.052071-1.39854453-.834557-.33382345-1.8244644-.49897821-2.976948-.49897821-1.0838402 0-2.0737477.17569655-2.9552711.52357572-.8815235.36193489-1.6257605.87496882-2.2399366 1.54964357-.617789.67467475-1.0838403 1.48990674-1.4017668 2.44920994-.3251521.9628171-.4805026 2.0310521-.4805026 3.2187608 0 1.2404176.1517377 2.3262223.4588258 3.2679558.3034753.9382196.7731394 1.7218262 1.4017667 2.340278.6250146.6219658 1.4089924 1.0858047 2.3374823 1.3844888.924877.305712 2.0014917.4532971 3.2153928.4532971.671981 0 1.3114468-.0421671 1.9039461-.1265015.5924994-.0843343 1.1163555-.1862383 1.5787941-.2951702.4624385-.1159597.8417826-.2319194 1.1488707-.358421.3034753-.1265015.4841153-.203808.6069505-.3267955.0722561-.0773065.1372865-.1616409.1914785-.2530031.054192-.101904.0830944-.2073219.1119968-.3267956.0216768-.1229875.036128-.2565169.0469664-.4146438s.018064-.3443652.018064-.5657429c0-.2459752-.0108384-.456811-.0252896-.6289936-.018064-.1721827-.0397408-.3162538-.0975456-.4322136-.0505792-.1159597-.126448-.2143497-.2348321-.2776005-.1011584-.0562229-.2131552-.0773065-.3287648-.0773065-.1950913 0-.4082466.0562229-.6611426.154613-.2384449.0878483-.5346946.1897522-.9032003.302198-.3576673.1124458-.7912034.2108359-1.2861571.3021981-.4877281.0878483-1.0621635.1370433-1.7160805.1370433-.6358529 0-1.1705475-.0808204-1.6113092-.2389473-.4479873-.1581269-.7948162-.3830185-1.0730019-.6746747-.2709601-.2951702-.4732769-.6500773-.6033378-1.0822908-.1156096-.3830185-.18064-.8046902-.1950912-1.272043h8.0131925c.3974082.0035139.7514626-.1229876 1.0007459-.3830185.2528961-.2670587.3576673-.6571051.3576673-1.1349997v-.5868265c-.0036128-.9382195-.1300608-1.8131884-.3721185-2.6178786zm-8.9994872 1.9467178c.0325152-.3689627.0975456-.7168419.2023169-1.0471514.1192224-.3865324.289024-.716842.5130177-.9944425.216768-.27408662.4913409-.49195034.8201058-.6571051.3287649-.16164082.7117218-.24246123 1.1705475-.24246123.9176515.00351393 1.5498916.27408661 1.9689766.81171806.3937953.50951997.5961121 1.21582007.5961121 2.13295607h-5.2710766z"/><path d="m22.7061225 20.6997468c-.8287227-.3229758-1.5380225-.8074396-2.1025673-1.4428594-.5681636-.6319092-.9915722-1.4077533-1.2702257-2.3099792-.2895101-.9057366-.4270274-1.9343444-.4306463-3.0858234.0036189-1.3270093.1700872-2.481999.5174994-3.4649689.3474121-.97945925.8359605-1.79392002 1.4620261-2.44689288.6260657-.64595164 1.3679354-1.13041537 2.229228-1.44636998.850436-.312444 1.7841062-.4669107 2.8010105-.4669107.412552 0 .821485.03159546 1.2195614.1053182.3980765.07021214.7744396.16499852 1.1254707.28786976.3474121.11585002.6586355.2597849.9409079.41425159.2750346.14744549.4776917.28084854.6115901.4142516.1158041.11233942.2026571.21063641.2605592.3089334.057902.09829699.1013285.21414701.1302795.34755007.0253322.12638184.0506643.28084854.0615209.45286827.0180944.18255155.0253322.39669856.0253322.64595164 0 .57925012-.0470454.99350173-.1628495 1.27435023-.1085663.2562743-.3039856.4634001-.5826391.4634001-.2279893 0-.4523596-.0912758-.6622544-.2422318-.1918005-.1334031-.4161709-.2843592-.6731111-.4493577-.2497025-.15446671-.5464504-.30191219-.8974814-.43531525-.3329366-.12989245-.7491075-.19659398-1.230418-.19308337-.940908.00351061-1.614019.33701825-2.1098051 1.02509722-.4849295.6880789-.7454886 1.7377503-.7454886 3.1455036 0 .6915895.0651398 1.2954139.1918005 1.8184943.1302795.5195698.3148422.9478638.5500692 1.2883927.2388459.3370183.5319749.5827607.8938625.7477592.3546499.1685092.7744396.2527637 1.2666068.2527637.5066428 0 .9264325-.0737227 1.2774635-.2176576.3655065-.1439349.6839677-.3089334.9553834-.4879743.2822724-.179041.5138805-.3475501.7020621-.4949956.206276-.1614879.3908387-.2668061.6115901-.2738273.1302796 0 .2605591.0351061.3582688.1228712.1085663.0947864.1700872.2176576.2098949.3721243.0361887.1474455.0687586.3264865.0832341.5406335.028951.2106364.0325699.4844637.0325699.8109501 0 .2562743-.0036189.4774426-.0217132.6529729-.0144756.1790409-.0361888.3264864-.0615209.4598895-.0253322.1263818-.061521.2352106-.1049475.329997-.0615209.11585-.1483739.2106364-.2786535.3370183-.1483739.133403-.3618876.2738273-.6622544.4423364-.3039856.1685092-.6477789.3159546-1.0386176.4458471-.379982.133403-.7961528.2352106-1.2485124.3159546s-.9155758.1193606-1.3932675.1193606c-1.0603309 0-2.0084765-.1579773-2.8408182-.4844637"/><path d="m65.3849058 20.8504012c-.5831771-.1965785-1.0757988-.5019772-1.4633761-.9161962-.3875774-.4107087-.6701104-.9302376-.8512213-1.5410351s-.2644219-1.3233945-.2644219-2.1377912v-6.51517324h-1.4199095c-.2861552.00351033-.514355-.1965785-.6230215-.46687394-.1195332-.28082644-.1702442-.67749377-.1702442-1.22861565 0-.28784709.0108666-.53708055.0398444-.74067971.0325999-.21061983.0688221-.38262602.1303998-.52303924.0615777-.13339255.1448887-.24572312.2607997-.32646072.1086665-.07020661.2426886-.10882025.3767107-.10882025h1.4054206v-2.72752673c0-.13339255.0434666-.26327478.1195332-.37209502.0905554-.13339255.2281997-.21061982.398444-.27029544.1702442-.06669628.3839551-.10530991.6447548-.13339256.2571775-.02457231.5686882-.03861363.9345323-.03861363.3767106 0 .6954658.01404132.9526433.03861363.2571775.02808265.4708884.06669628.6375104.13339256.166622.05616529.3006441.13690289.3911995.25976445.0869333.11233057.1340221.2422128.1340221.38262601v2.72752673h2.7347747c.1376443 0 .2716663.03861364.3839551.10882025.1195332.0807376.1955998.18955784.2571775.32646072.0615777.14041322.1050443.30890908.134022.52303924.0217333.20359916.0326.45283262.0362222.74067971-.0036222.55112188-.050711.95129954-.166622 1.22861565-.1122888.26678511-.3404885.47038427-.630266.46687394h-2.7492635v5.95703074c-.0036222.6985557.1195332 1.200533.315133 1.5059317.1883553.2843368.514355.4423016 1.0721765.445812.1919776 0 .3585996-.0175517.4998661-.0456343.1593776-.0351033.2933997-.073717.4056885-.1123306.1231554-.0456343.2318219-.0842479.3115107-.1158409.1050443-.042124.2100887-.0631859.315133-.0631859.0977999-.0035104.2028442.0280826.2789108.0807376.1231554.0807376.1811109.1965785.2173331.3159297.0362221.1158409.0651999.2667851.0941776.445812.0217333.1895578.0326.4247499.0362222.7055764h-.0036222c0 .4387913-.0217333.7828036-.0869332 1.0355474-.0615777.2492335-.1303999.4387913-.264422.5756942-.1231554.1228616-.2789107.2176405-.4708883.2983781-.1919776.0772273-.4093107.1439236-.6556215.2000888-.2463108.052655-.5143549.0982893-.796888.1263719-.2861552.0280827-.5723104.0491447-.8620879.0491447-.7751546-.0035104-1.4525094-.0982893-2.0393087-.2948678"/><path d="m12.3184859 4.3216816c-.3638228-.34141864-.5043089-.89050429-.5043089-1.62965804 0-.76731199.1440883-1.34103609.5151155-1.69653385.3782317-.34845819 1.0086178-.4857296 1.8803517-.48924938.8681317.00703956 1.4877111.13375163 1.8587384.47517026.3638228.34493842.5115133.89754385.5115133 1.64021738 0 .77083177-.1548949 1.34103609-.5295243 1.68949429-.3854361.34141864-1.0086178.47869005-1.8731473.47869005-.8717339-.00703956-1.4913134-.12671208-1.8587384-.46813071"/><path d="m14.9609797 6.34004888c.44854.00351168.8066485.09130354 1.0345358.33009742.2134182.22123549.3038497.53377453.3038497.89547702v12.58233008c.0036173.1334436-.0434071.2739106-.1302213.3827725-.097666.1088619-.2351218.1861188-.3906639.2423056-.1736284.0561867-.3761948.0948152-.6330202.1193969-.2604425.0245817-.5679095.0386284-.9404871.0386284-.3761948 0-.6981308-.0140467-.9513389-.0386284-.253208-.0245817-.4593917-.0632102-.6294029-.1193969-.1591593-.0596985-.3002324-.1334437-.3942811-.2423056-.0868142-.1088619-.1374558-.2458172-.1374558-.3827725v-10.41211519h-5.66824354v5.95931179c0 .6988232.11575226 1.2009927.31831872 1.5065084.18448016.2879573.5100334.442471 1.07070841.4459827.19171468 0 .3544913-.0210701.49918162-.0491635.1555421-.0351167.29299791-.0737451.40875017-.1088619.12298678-.0456518.22427001-.0842802.30746694-.1158852.09766597-.0421401.20618372-.0632102.31108421-.0632102.10490048-.0035117.19533194.0280934.28214613.0807685.12298678.0807685.17724565.1966538.21341823.3160507.03617258.1158853.06511065.2668873.0868142.4459827.03255532.1896304.04340709.4249126.04340709.7058466 0 .4389593-.0253208.7725684-.07957968 1.0218973-.05787613.2387939-.13383855.4249126-.26044258.5653796-.11575226.1369553-.28214614.2423056-.48471259.3230741-.19171468.0772568-.41598469.1439786-.65834098.2001654-.24959082.0526752-.51365066.0983269-.79941405.1264203-.28214614.0316051-.56790953.0491635-.85729018.0491635-.77409325 0-1.45052052-.0948153-2.03651634-.291469-.58237856-.1966538-1.07432567-.5021695-1.45775503-.9165471-.39066388-.4108659-.67642727-.9305938-.85005566-1.5416251-.18086291-.6075197-.26767711-1.3239014-.26767711-2.1386099v-6.52117969h-1.41434793c-.28576339.00351168-.52088517-.19665377-.62940292-.46705272-.12298677-.28093396-.16277661-.68126487-.17001113-1.2290861 0-.28795732.01446903-.53728622.03978984-.74096334.02532081-.21070048.06511065-.38277253.12660404-.51972784.05787613-.13344364.14469032-.24581722.26405984-.32658574.10851774-.07023349.23873904-.10886191.37619485-.10886191h1.40349616v-2.72505949c0-.13344363.03617258-.26688726.11936951-.3722375.09404872-.13344364.23150453-.21070048.3978984-.27039895.17362839-.06672181.38704662-.10535023.64025469-.13344363.26044259-.02458172.56790953-.03862842.94048712-.03862842.37619485 0 .69451356.0140467.95133889.03862842.25682533.0280934.4666263.06672182.63663743.13344363.15915936.0561868.29299791.13695531.39066388.25986392.08319694.11237359.12660404.24230555.12660404.38277253v2.72505949h8.54758101"/><g transform="translate(2 23.947368)"><path d="m3.00878873 8.24102447c-.49854929 0-.98835211-.20116902-1.32946479-.58601409v.51604225h-1.0758169v-6.47239436h1.0758169v2.4402676c.30612676-.36735211.7871831-.69971831 1.47815493-.69971831 1.05832395 0 1.83676057.79592958 1.83676057 2.40528169 0 1.60935212-.79592958 2.39653522-1.98545071 2.39653522zm-.23615493-.85715493c.81342254 0 1.14578874-.4985493 1.14578874-1.53063381 0-.97960563-.41983099-1.49564788-1.11080282-1.49564788-.44607042 0-.87464789.27988732-1.12829578.58601408v1.863c.28863381.37609859.70846479.57726761 1.09330986.57726761zm3.66477465 2.5889577c-.55102817 0-.87464789-.07871831-1.10205634-.13994366l.24490141-.86590137c.13119718.03498592.41108451.09621127.7871831.09621127.38484507 0 .58601408-.14869014.73470423-.52478873l.13119718-.34111268-1.78428169-4.67061972h1.11954929l1.19826761 3.38488733h.01749296l1.18952112-3.38488733h1.06707038l-1.97670418 5.15167606c-.30612676.81342253-.70846479 1.29447883-1.62684507 1.29447883z"/><path d="m55.7124999 0c.2730785 0 .5063296.09565664.6997601.28697281.1934306.19131616.2901444.42309957.2901444.69535718 0 .25754099-.0986101.48012664-.2958335.66776365-.1972233.18763701-.428578.2814541-.694071.2814541-.2730784 0-.5063295-.09197755-.69976-.27593539-.1934306-.18395785-.2901444-.40838306-.2901444-.67328236 0-.27961592.0948175-.51323888.2844552-.70087589.1896379-.18763701.4247853-.2814541.7054492-.2814541zm-12.5712536.1878382c.0747533-.02224183.1681937-.0370695.2803238-.04448344.11213-.00741394.2448153.00556026.3980596.03892301.1532444.03336274.2952737.09452686.4260921.18349417s.2410779.23353703.330782.43371349c.0897041.20017645.1345555.44112599.1345555.72285582v1.36786562c0 .04448366.018688.05560441.0560647.03336258.3588161-.17793464.7923792-.26690061 1.3007021-.26690061.8746144 0 1.5941049.2724583 2.1584928.81738311.5643879.5449248.8465777 1.27333377.8465777 2.18524874 0 1.00088229-.3102219 1.79972265-.9306748 2.39654505-.620453.5968224-1.5062672.89522913-2.657469.89522913-.7026817 0-1.4315162-.11862131-2.1865252-.35586748-.1420314-.03706971-.213046-.13715644-.213046-.30026319v-8.01813913c0-.02224183.018688-.05189716.0560647-.08896687zm-30.0839798.66015837h3.7494051c.0604137 0 .09062.02948765.09062.08846384v1.37118951c0 .05897618-.0302063.08846384-.09062.08846384h-3.3076323c-.0604137 0-.09062.02948764-.09062.08846384v1.49282728c.0151034.05897619.0453097.08846384.09062.08846384h2.9338245c.0604137 0 .09062.02948766.09062.08846384v1.32695759c0 .05897619-.0302063.08846385-.09062.08846385h-2.9338245c-.0453103 0-.0755166.02948764-.09062.08846384v1.50388526c0 .05897618.0302063.08846384.09062.08846384h3.4209074c.0453102 0 .0755166.02211574.09062.06634788.0226551.07372023.0377584.16586914.0453101.27644949.0075517.11058036-.0056637.23774586-.0396464.38150031-.0339827.14375447-.0943954.27644889-.18124.39808728-.0868447.12163839-.2284372.22484517-.4247816.30962344-.1963445.08477827-.4342197.12716677-.713633.12716677h-3.9079901c-.0604137 0-.0906202-.02948765-.0906202-.08846384v-6.54632411c0-.36860118.132153-.68190748.3964629-.9399283.2643098-.25802082.5852526-.38702929.9628381-.38702929zm25.2027918.37688736h1.4587432c.0603101 0 .0904647.02605144.0904647.07815511v1.38446196c0 .05954705.0301546.08932013.0904647.08932013h1.5605159c.0603101 0 .0904647.02977307.0904647.08932012v1.18349168c0 .05210366-.0301546.07815511-.0904647.07815511h-1.5605159c-.0603101 0-.0904647.02977308-.0904647.08932013v2.3334883c0 .61035725.2751607.9155313.8254903.9155313.3015505 0 .6181737-.08187596.9498792-.24563035.0226163-.00744338.0414629-.00744338.0565405 0 .0150775.00744338.0263855.01488665.0339243.02233003l.0226161.01116502c.0829264.10420734.1394662.24562945.1696213.4242706.030155.17864115-.0037689.38333106-.1017728.61407587-.2412403.43915948-.7689458.65873593-1.5831321.65873593-.5880234 0-1.0704969-.15630866-1.4474351-.46893066-.376938-.31262201-.5654042-.81132106-.5654042-1.49611212v-2.38931338c0-.12653748-.0471166-.23632571-.1413511-.32936798-.0942346-.09304226-.2054296-.13956269-.3335886-.13956269h-.3618587c-.0603101 0-.0904647-.02605145-.0904647-.07815511v-1.18349168c0-.05954705.0301546-.08932012.0904647-.08932012h.7463336c.0603101 0 .0904648-.02977308.0904648-.08932013v-1.38446196c0-.05210367.0301545-.07815511.0904646-.07815511zm20.2223467 0h1.4714718c.0528223 0 .0792331.02605144.0792331.07815511v1.38446196c.015092.05954705.0452757.08932013.0905521.08932013h1.5733427c.0528223 0 .0792331.02977307.0792331.08932012v1.18349168c0 .05210366-.0264108.07815511-.0792331.07815511h-1.5733427c-.0452764 0-.0754601.02977308-.0905521.08932013v2.3334883c0 .61035725.2754265.9155313.8262879.9155313.2792037 0 .5999058-.08187596.9621161-.24563035l.1018711.03349505c.0528223.05954705.098098.13956219.1358281.24004784.0377303.10048564.0547087.22702122.0509356.37961054-.003773.15258931-.0433892.29215061-.1188496.41868809-.2263814.43915948-.7545968.65873593-1.5846618.65873593-.5885917 0-1.0715314-.15630866-1.4488337-.46893066-.3773023-.31262201-.5659507-.81132106-.5659507-1.49611212v-2.38931338c0-.12653748-.0471621-.23632571-.1414877-.32936798-.0943255-.09304226-.205628-.13956269-.3339108-.13956269h-.3508894c-.0603684 0-.0905521-.02605145-.0905521-.07815511v-1.18349168c0-.05954705.0301837-.08932012.0905521-.08932012h.7357358c.0603684 0 .0905521-.02977308.0905521-.08932013v-1.38446196c0-.05210367.0301837-.07815511.0905521-.07815511zm-36.0218529 1.6009033h1.5090548c.0900932 0 .1126161.05573942.0675695.16721994l-2.2185357 5.74121791c-.030031.08175237-.0675693.12262795-.1126159.12262795h-1.7905948c-.0525544 0-.0938466-.04087558-.1238777-.12262795l-2.1960124-5.66318194c-.0150156-.05202424-.0037541-.09289981.0337848-.12262796.0825854-.06688831.1970773-.12448571.3434788-.17279393.1464016-.04830822.3172008-.07803592.5124029-.08918397.1952021-.01114806.3922782.0613132.5912342.21738592s.3584937.39389426.4786181.71347174l1.2387762 3.51161872c.0075078.02229611.0206462.03344399.0394157.03344399.0187694 0 .0319078-.01114788.0394156-.03344399l1.4752698-4.19164647c.0225234-.07432035.0600617-.11147996.1126161-.11147996zm4.7102901-.14046477c1.788956 0 2.6834206 1.02952146 2.6834206 3.08859527 0 .13284347-.049481.24723474-.1484445.34317725-.0989636.09594251-.2169568.14391305-.3539832.14391305h-3.4713187c-.0609006 0-.0913505.02583028-.0913505.07749163.0685133.39115022.277856.69373359.6280346.90775918.3501787.2140256.7422206.32103679 1.1761377.32103679.6242314 0 1.2446473-.13284148 1.8612662-.39852842.0380629-.02214058.0761252-.0147605.1141881.02214046.0609006.07380194.1084785.17712308.1427352.30996656.0342566.13284347.0437721.28598018.028547.45941471s-.112284.33948637-.2911797.49816052c-.1788956.15867415-.4396225.27860049-.7821886.3597826-.0152251 0-.062803.00738009-.1427351.02214047-.0799321.01476039-.1674754.02952055-.2626326.04428093-.0951574.0147604-.220763.02952055-.3768209.04428095-.1560579.01476038-.3102103.02214046-.4624618.02214046-1.0048604 0-1.8003631-.27675308-2.3865316-.83026755-.5861686-.55351446-.8792485-1.29890275-.8792485-2.23618725 0-.97418546.2816612-1.75093911.8449921-2.33028425.5633308-.57934513 1.286515-.86901336 2.1695742-.86901336zm6.6246714 0c.8331783 0 1.4710709.18075878 1.9136969.54228178s.6639356.96651158.6639356 1.81498391v3.7738385c0 .0368901-.0185974.06271278-.0557929.07746883-.0743909.02951208-.169238.04795684-.2845439.05533487-.1153059.00737802-.2492075-.0073778-.4017089-.0442679-.1525014-.03689011-.2938421-.09775785-.4240261-.18260509-.1301842-.08484723-.2399091-.22687199-.3291782-.42607854s-.133903-.44267757-.133903-.73042036v-2.41260055c0-.67877787-.3570711-1.01816171-1.0712239-1.01816171-.3496374 0-.6955499.04795641-1.0377481.14387067-.0669519.01475604-.1004273.0590235-.1004273.1328037v4.3050533c0 .05902416-.0297559.0885358-.0892687.0885358h-1.4394571c-.0595127 0-.0892686-.02951164-.0892686-.0885358v-5.41175081c0-.06640218.0297559-.11066963.0892686-.1328037.9075692-.32463289 1.8374418-.4869469 2.7896456-.4869469zm18.7200882 0c.4197699 0 .7477103.06881988.9838308.20646169.2361206.13764182.3729186.30876151.410398.51336421.0374795.20460269.0487231.38316237.0337314.53568438-.0149918.15252202-.0487228.28458179-.101194.39618325-.0224877.04464059-.0599666.05952057-.1124379.04464037-.2998356-.11160147-.6896161-.16740137-1.1693532-.16740137-.2698521 0-.5284564.04091993-.7758208.122761-.0374796.0148802-.056219.04092015-.056219.07812065v4.35243566c0 .05952078-.0299831.08928073-.0899502.08928073h-1.4616916c-.0599671 0-.0899502-.02975995-.0899502-.08928073v-5.43496454c0-.02976039.0074958-.05394035.0224876-.07254059.0149917-.01860024.0281094-.03348022.0393532-.04464037.0112438-.01116014.0356051-.02790011.0730846-.0502204l.0562189-.02232019c.7196055-.30504403 1.4654356-.45756375 2.2375124-.45756375zm13.189084 0c1.788956 0 2.6834206 1.02952146 2.6834206 3.08859527 0 .13284347-.049481.24723474-.1484445.34317725-.0989636.09594251-.2169568.14391305-.3539832.14391305h-3.4713187c-.0609006 0-.0913505.02583028-.0913505.07749163.0685133.39115022.277856.69373359.6280346.90775918.3501787.2140256.7422207.32103679 1.1761377.32103679.6242314 0 1.2446474-.13284148 1.8612662-.39852842.0380629-.02214058.0761252-.0147605.1141881.02214046.0609007.07380194.1084785.17712308.1427352.30996656.0342566.13284347.0437721.28598018.028547.45941471s-.112284.33948637-.2911797.49816052c-.1788956.15867415-.4396225.27860049-.7821885.3597826-.0152252 0-.0628032.00738009-.1427352.02214047-.0799321.01476039-.1674754.02952055-.2626326.04428093-.0951574.0147604-.220763.02952055-.3768209.04428095-.1560578.01476038-.3102102.02214046-.4624618.02214046-1.0048604 0-1.800363-.27675308-2.3865316-.83026755-.5861686-.55351446-.8792485-1.29890275-.8792485-2.23618725 0-.97418546.2816612-1.75093911.8449921-2.33028425.5633308-.57934513 1.286515-.86901336 2.1695742-.86901336zm-10.6983566.09422184h1.4606296c.060388 0 .0905816.02969648.0905816.08909034v5.94677992c0 .03712116-.018871.06310558-.0566135.07795404-.0754852.02969693-.1717272.04825723-.2887292.05568146-.1170018.00742424-.252873-.00556797-.4076175-.03897702-.1547444-.03340904-.2962769-.09465804-.4246016-.18374881-.1283246-.08909079-.2377764-.23386114-.3283585-.43431539-.0905822-.20045426-.1358725-.44173818-.1358725-.72385898v-4.69951522c0-.05939386.0301935-.08909034.0905816-.08909034zm-27.8900418 1.27199485c-.3399435 0-.6213369.10507679-.8441887.31523351s-.3796012.50326565-.4702528.87933557c-.0075543.02949567-.0037772.04977366.0113314.06083453.0151086.01106089.0415483.01659125.0793197.01659125h2.2889412c.0528802 0 .0793198-.02580835.0793198-.07742578-.0151086-.36132208-.1189786-.65074411-.3116132-.86827474-.1926347-.21753065-.4702511-.32629434-.8328574-.32629434zm38.5338436 0c-.3399434 0-.6213369.10507679-.8441887.31523351s-.3796012.50326565-.4702528.87933557c-.0075543.02949567-.0037772.04977366.0113314.06083453.0151086.01106089.0415483.01659125.0793197.01659125h2.2889412c.0528802 0 .0793198-.02580835.0793198-.07742578-.0151086-.36132208-.1189787-.65074411-.3116132-.86827474-.1926347-.21753065-.4702511-.32629434-.8328574-.32629434zm-19.8958289.09422184c-.4128647 0-.7760272.09513567-1.0894986.28540985-.0229368.00731824-.0344051.02927262-.0344051.06586381v2.73334816c0 .10977356.0496959.18295485.1490892.21954603.3058257.05854591.542837.08781842.7110411.08781842.5581319 0 1.0130408-.15368069 1.3647404-.46104668.3516995-.30736599.5275467-.76474899.5275467-1.37216272 0-.46104898-.154822-.83610305-.4644705-1.12517344-.3096485-.2890704-.697659-.43360343-1.1640432-.43360343z"/></g></g></svg>